<?xml version="1.0" encoding="UTF-8"?>
<svg version="1.1" xmlns="http://www.w3.org/2000/svg" width="256" height="256">
<path d="M0 0 C84.48 0 168.96 0 256 0 C256.0825 32.236875 256.165 64.47375 256.25 97.6875 C256.28641602 107.87455811 256.32283203 118.06161621 256.36035156 128.55737305 C256.37841797 140.97619629 256.37841797 140.97619629 256.3817749 146.78596497 C256.38550861 150.8525003 256.40052643 154.91882776 256.42230225 158.98530579 C256.44969501 164.16920876 256.45797283 169.3528085 256.4522891 174.53677714 C256.45347797 176.44124186 256.46143588 178.34571694 256.47686052 180.25011957 C256.49670948 182.81973522 256.49197919 185.38816755 256.48101807 187.95780945 C256.49266872 188.7056561 256.50431938 189.45350275 256.51632309 190.22401142 C256.46036183 195.09329103 255.47177533 197.58634889 252 201 C249.72745954 202.13627023 248.49319521 202.12621709 245.97005653 202.12863445 C245.12207611 202.1318589 244.27409568 202.13508335 243.40041888 202.1384055 C242.4634726 202.1368569 241.52652633 202.1353083 240.56118774 202.13371277 C239.07440303 202.1371111 239.07440303 202.1371111 237.55758226 202.14057809 C234.21497159 202.14694061 230.87240123 202.14608729 227.52978516 202.14526367 C225.14192146 202.14825376 222.75405825 202.15165594 220.36619568 202.15544128 C214.54042902 202.1633794 208.71467472 202.16649661 202.88890292 202.16705366 C198.15452446 202.16752835 193.42014934 202.16958072 188.68577194 202.17275429 C175.27082979 202.18156399 161.85589565 202.1861732 148.44095059 202.18542381 C147.71729236 202.18538386 146.99363414 202.1853439 146.24804688 202.18530273 C145.16123816 202.18524141 145.16123816 202.18524141 144.05247371 202.18517885 C132.30884404 202.18477236 120.56524642 202.19434194 108.82162602 202.2084411 C96.77108886 202.22279487 84.72056735 202.22971183 72.67002141 202.22884732 C65.90146683 202.22851499 59.13294585 202.23127777 52.36439896 202.24202538 C46.00004132 202.25167776 39.63575482 202.25180524 33.27139473 202.24450874 C30.93163894 202.24345932 28.59187878 202.24584682 26.25213051 202.2518692 C23.06559543 202.25954173 19.87930894 202.25497579 16.69277954 202.24723816 C15.76029471 202.25238172 14.82780988 202.25752529 13.86706793 202.26282471 C13.01387201 202.25822592 12.16067609 202.25362712 11.28162575 202.24888897 C10.54605245 202.24910634 9.81047916 202.24932371 9.05261576 202.24954766 C5.51733653 201.81974454 3.50385107 200.61972793 1.27254772 197.87526417 C-0.35155329 194.2056812 -0.40700493 190.93278603 -0.36076355 186.99577332 C-0.3633316 186.19713364 -0.36589966 185.39849396 -0.36854553 184.57565308 C-0.37350658 181.89422452 -0.35694884 179.21335951 -0.34057617 176.53198242 C-0.3396571 174.57897363 -0.34005775 172.62596385 -0.34167194 170.67295551 C-0.34234937 165.44169849 -0.32495877 160.21064724 -0.30384064 154.97943878 C-0.28675896 150.07112477 -0.28595145 145.16286087 -0.28381348 140.2545166 C-0.26806993 125.89881714 -0.22618649 111.54315597 -0.1875 97.1875 C-0.125625 65.115625 -0.06375 33.04375 0 0 Z M11 11 C9.31232534 14.37534931 9.85281994 18.20326048 9.85473633 21.91601562 C9.85137772 22.8396843 9.8480191 23.76335297 9.84455872 24.7150116 C9.83503274 27.77877128 9.83310489 30.84247642 9.83203125 33.90625 C9.82882022 36.028524 9.82545627 38.15079777 9.82194519 40.27307129 C9.81595008 44.72518426 9.81410572 49.17727781 9.81469727 53.62939453 C9.814799 59.34630608 9.80113655 65.06309374 9.78392506 70.77997589 C9.77283144 75.16360044 9.77077723 79.54719476 9.77130699 83.93083191 C9.77012328 86.03924487 9.76567975 88.14765852 9.75797462 90.25605774 C9.74822625 93.19878947 9.7510321 96.14124868 9.75708008 99.08398438 C9.75146057 99.96197189 9.74584106 100.83995941 9.74005127 101.74455261 C9.54914693 106.35120222 9.54914693 106.35120222 12 110 C13.93274771 110.30288188 13.93274771 110.30288188 16.17529297 110.25396729 C17.48768951 110.26242676 17.48768951 110.26242676 18.82659912 110.27105713 C19.78874329 110.26700867 20.75088745 110.26296021 21.7421875 110.25878906 C22.75363831 110.2622937 23.76508911 110.26579834 24.80718994 110.26940918 C28.16319567 110.27823893 31.51899199 110.27237291 34.875 110.265625 C37.1990564 110.26697129 39.52311253 110.26891152 41.84716797 110.27142334 C46.72300899 110.27437629 51.59877684 110.27007143 56.47460938 110.26074219 C62.7363365 110.24934761 68.9978922 110.25590616 75.25961304 110.26788712 C80.0601532 110.27510107 84.86065247 110.27281992 89.66119385 110.26763153 C91.97056091 110.26629375 94.27993165 110.26794721 96.58929443 110.27259064 C99.81223439 110.27764822 103.03489355 110.26995635 106.2578125 110.25878906 C107.70102875 110.26486176 107.70102875 110.26486176 109.17340088 110.27105713 C110.48579742 110.26259766 110.48579742 110.26259766 111.82470703 110.25396729 C112.96844284 110.25283621 112.96844284 110.25283621 114.13528442 110.25168228 C116.245417 110.15869736 116.245417 110.15869736 118 108 C118.18841754 104.95641474 118.25163081 102.00444765 118.22705078 98.96044922 C118.22734283 98.02381439 118.22763489 97.08717957 118.22793579 96.12216187 C118.22653885 93.01624389 118.21096049 89.91056374 118.1953125 86.8046875 C118.19158367 84.65520356 118.18873608 82.50571793 118.18673706 80.35623169 C118.17909039 74.69101288 118.15943303 69.02589617 118.1373291 63.36071777 C118.11689291 57.58294048 118.10774011 51.80514674 118.09765625 46.02734375 C118.07618812 34.68485091 118.04203973 23.34243393 118 12 C115.11408712 10.36133603 113.05366054 9.75029057 109.74278259 9.75276184 C108.90020401 9.74856735 108.05762543 9.74437286 107.18951416 9.74005127 C105.81554474 9.74848053 105.81554474 9.74848053 104.41381836 9.75708008 C102.95713493 9.75423256 102.95713493 9.75423256 101.47102356 9.75132751 C98.26054821 9.74762235 95.050299 9.75831994 91.83984375 9.76953125 C89.61072313 9.77072326 87.381602 9.77117617 85.15248108 9.7709198 C80.48109797 9.77248419 75.80979155 9.78077099 71.13842773 9.79418945 C65.14369361 9.811189 59.1490437 9.81500347 53.15428829 9.81424427 C48.55187676 9.81451588 43.94948372 9.81999546 39.34707832 9.82724571 C37.13622744 9.83043275 34.92537446 9.83239987 32.71452141 9.83313942 C29.62857347 9.83530204 26.54271574 9.8440444 23.45678711 9.85473633 C22.53878326 9.85428314 21.62077942 9.85382996 20.67495728 9.85336304 C19.83519852 9.85762802 18.99543976 9.86189301 18.13023376 9.86628723 C17.40076003 9.86796308 16.6712863 9.86963892 15.9197073 9.87136555 C13.77834601 9.9338326 13.77834601 9.9338326 11 11 Z M138 31 C138.28983269 34.30683466 138.28983269 34.30683466 140 37 C142.39269951 37.10558845 144.75667956 37.1467844 147.15014648 37.14526367 C147.89810486 37.14862228 148.64606323 37.1519809 149.41668701 37.15544128 C151.90150592 37.16497902 154.38625765 37.1668958 156.87109375 37.16796875 C158.59123259 37.17117938 160.31137115 37.17454329 162.0315094 37.17805481 C165.64218784 37.18405315 169.25284232 37.18589399 172.86352539 37.18530273 C177.49870985 37.18520107 182.13374127 37.19885428 186.76888943 37.21607494 C190.32299002 37.22717319 193.87705336 37.22922261 197.43116951 37.22869301 C199.14045807 37.22987638 200.8497475 37.23431801 202.55901909 37.24202538 C204.9462759 37.25178159 207.3331972 37.24896472 209.72045898 37.24291992 C210.78732689 37.25134918 210.78732689 37.25134918 211.87574768 37.25994873 C215.88439597 37.34376316 215.88439597 37.34376316 219 35 C218.71016731 31.69316534 218.71016731 31.69316534 217 29 C214.60730049 28.89441155 212.24332044 28.8532156 209.84985352 28.85473633 C209.10189514 28.85137772 208.35393677 28.8480191 207.58331299 28.84455872 C205.09849408 28.83502098 202.61374235 28.8331042 200.12890625 28.83203125 C198.40876741 28.82882062 196.68862885 28.82545671 194.9684906 28.82194519 C191.35781216 28.81594685 187.74715768 28.81410601 184.13647461 28.81469727 C179.50129015 28.81479893 174.86625873 28.80114572 170.23111057 28.78392506 C166.67700998 28.77282681 163.12294664 28.77077739 159.56883049 28.77130699 C157.85954193 28.77012362 156.1502525 28.76568199 154.44098091 28.75797462 C152.0537241 28.74821841 149.6668028 28.75103528 147.27954102 28.75708008 C146.21267311 28.74865082 146.21267311 28.74865082 145.12425232 28.74005127 C141.11560403 28.65623684 141.11560403 28.65623684 138 31 Z M231 29 C230.34 30.65 229.68 32.3 229 34 C230.12357075 35.60691426 230.12357075 35.60691426 232 37 C234.90082617 37.43865089 234.90082617 37.43865089 238.0625 37.3125 C239.12597656 37.30863281 240.18945312 37.30476563 241.28515625 37.30078125 C244.14663266 37.26999512 244.14663266 37.26999512 246 35 C246.2500773 32.45809998 246.2500773 32.45809998 246 30 C244.86298403 28.63467451 244.86298403 28.63467451 241.83984375 28.90234375 C240.55207031 28.91394531 239.26429688 28.92554687 237.9375 28.9375 C236.64714844 28.94652344 235.35679687 28.95554687 234.02734375 28.96484375 C233.02832031 28.97644531 232.02929688 28.98804687 231 29 Z M138 49 C138.28983269 52.30683466 138.28983269 52.30683466 140 55 C142.14307896 55.12537741 144.29078886 55.17574364 146.4375 55.1875 C147.61183594 55.20167969 148.78617188 55.21585938 149.99609375 55.23046875 C153.11496902 55.31899256 153.11496902 55.31899256 155 53 C154.71016731 49.69316534 154.71016731 49.69316534 153 47 C150.85692104 46.87462259 148.70921114 46.82425636 146.5625 46.8125 C145.38816406 46.79832031 144.21382812 46.78414062 143.00390625 46.76953125 C139.88503098 46.68100744 139.88503098 46.68100744 138 49 Z M166.04466248 48.52326965 C165.69992386 49.01059067 165.35518524 49.49791168 165 50 C165.66 51.65 166.32 53.3 167 55 C177.15266151 55.02312392 187.3053168 55.04091534 197.45799923 55.05181217 C202.17179733 55.05704089 206.88557747 55.06413834 211.59936523 55.07543945 C216.14455404 55.08626873 220.68972552 55.09227692 225.23492622 55.09487724 C226.97294958 55.09673142 228.71097194 55.10035189 230.44898796 55.10573006 C232.87478595 55.11294103 235.30051146 55.11399092 237.72631836 55.11352539 C238.81496185 55.1189183 238.81496185 55.1189183 239.92559814 55.12442017 C243.24599888 55.408186 243.24599888 55.408186 246 54 C246.2500773 51.54190002 246.2500773 51.54190002 246 49 C243.57048938 46.57048938 242.27773056 46.75466747 238.96142578 46.71783447 C238.26267334 46.72031189 237.5639209 46.72278931 236.84399414 46.7253418 C236.1072496 46.72023087 235.37050507 46.71511993 234.61143494 46.70985413 C232.16926004 46.69592242 229.72736623 46.69691758 227.28515625 46.69921875 C225.59126174 46.69533369 223.89736821 46.69099941 222.20347595 46.68623352 C218.65002283 46.67876355 215.09666906 46.67906811 211.54321289 46.68432617 C206.98541019 46.69012089 202.42801385 46.6731937 197.87027836 46.6499815 C194.37102371 46.63526205 190.87186732 46.63437002 187.3725872 46.63749123 C185.69203321 46.63697708 184.01147385 46.63172185 182.33094978 46.62167931 C179.98216345 46.60936698 177.6341736 46.61607469 175.28540039 46.62768555 C174.58867218 46.62004181 173.89194397 46.61239807 173.17410278 46.60452271 C170.20603547 46.6370163 168.43040441 46.66470138 166.04466248 48.52326965 Z M138 67 C137.74969023 69.58380177 137.74969023 69.58380177 138 72 C141.67437382 74.32591297 144.82225633 74.24769493 149.10766602 74.24291992 C149.81544189 74.24481827 150.52321777 74.24671661 151.25244141 74.24867249 C153.58637656 74.25237 155.91999886 74.24169132 158.25390625 74.23046875 C159.87768009 74.22927631 161.50145463 74.22882392 163.12522888 74.2290802 C166.52550586 74.22751714 169.9256773 74.21924049 173.32592773 74.20581055 C177.68624742 74.18880748 182.04645131 74.18499672 186.40680027 74.18575573 C189.75849006 74.18548394 193.1101545 74.18000158 196.46183586 74.17275429 C198.06981146 74.16957067 199.67778993 74.16760093 201.28576851 74.16686058 C203.53113841 74.16469454 205.77638506 74.15594496 208.02172852 74.14526367 C209.29983902 74.14145187 210.57794952 74.13764008 211.89479065 74.13371277 C215.03512663 74.14113655 215.03512663 74.14113655 218 73 C218.76956136 70.65466049 218.76956136 70.65466049 219 68 C218.02299523 66.20145742 218.02299523 66.20145742 216 65 C212.68664992 64.54799342 212.68664992 64.54799342 208.82226562 64.62768555 C208.09512863 64.62403488 207.36799164 64.62038422 206.61882019 64.61662292 C204.2143928 64.60851457 201.81063876 64.62212937 199.40625 64.63671875 C197.73620606 64.63723733 196.0661615 64.63671972 194.39611816 64.63520813 C190.89565928 64.63529787 187.39543065 64.64572995 183.89501953 64.66381836 C179.40568629 64.68650563 174.91668955 64.6870498 170.42731476 64.68030071 C166.97866825 64.67696091 163.53009861 64.68359103 160.08146667 64.69342995 C158.42604474 64.69728204 156.77061426 64.69843012 155.1151886 64.6968441 C152.80253783 64.69647367 150.49032015 64.709087 148.17773438 64.7253418 C146.20274963 64.73225288 146.20274963 64.73225288 144.18786621 64.73930359 C140.84462739 64.75327662 140.84462739 64.75327662 138 67 Z M230.1484375 66.390625 C228.7800272 67.95140986 228.7800272 67.95140986 229.125 70.0625 C229.95252093 72.3511243 229.95252093 72.3511243 233 74 C235.14790929 74.31600189 235.14790929 74.31600189 237.4375 74.25 C238.19933594 74.25515625 238.96117187 74.2603125 239.74609375 74.265625 C242.21443018 73.9747292 243.857686 73.22975656 246 72 C246.25030977 69.58380177 246.25030977 69.58380177 246 67 C242.66602694 64.77735129 241.40485109 64.70324537 237.5 64.6875 C236.06140625 64.66236328 236.06140625 64.66236328 234.59375 64.63671875 C231.9668252 64.79138972 231.9668252 64.79138972 230.1484375 66.390625 Z M138 95 C137.80110184 98.0023537 137.72736152 100.91250098 137.74121094 103.91601562 C137.7377063 104.8396843 137.73420166 105.76335297 137.73059082 106.7150116 C137.72176324 109.7788334 137.72762629 112.8424257 137.734375 115.90625 C137.73302865 118.02852422 137.73108836 120.15079813 137.72857666 122.27307129 C137.725624 126.72520885 137.7299276 131.17726627 137.73925781 135.62939453 C137.75065239 141.34631987 137.74409368 147.06305745 137.73211288 152.77997589 C137.72489812 157.16360905 137.72718045 161.54719743 137.73236847 165.93083191 C137.73370603 168.03924074 137.73205356 170.1476536 137.72740936 172.25605774 C137.72235044 175.19881006 137.73004546 178.14125504 137.74121094 181.08398438 C137.73716248 181.96197189 137.73311401 182.83995941 137.72894287 183.74455261 C137.54759699 188.35124979 137.54759699 188.35124979 140 192 C141.95266145 192.30014516 141.95266145 192.30014516 144.21998596 192.24723816 C145.10477631 192.25143265 145.98956665 192.25562714 146.90116882 192.25994873 C148.36076775 192.25151947 148.36076775 192.25151947 149.84985352 192.24291992 C151.38406952 192.24576744 151.38406952 192.24576744 152.94927979 192.24867249 C156.34256567 192.25238837 159.73563927 192.24166515 163.12890625 192.23046875 C165.47777786 192.22927739 167.82664995 192.22882369 170.17552185 192.2290802 C175.10264052 192.22751397 180.02968668 192.21921311 184.95678711 192.20581055 C191.2880756 192.1888112 197.61928436 192.18499638 203.95059299 192.18575573 C208.8016995 192.18548446 213.65278841 192.18001037 218.50388908 192.17275429 C220.83920089 192.16956124 223.1745147 192.16759874 225.50982857 192.16686058 C228.76643432 192.16470426 232.02295367 192.15597571 235.27954102 192.14526367 C236.2546312 192.14571686 237.22972137 192.14617004 238.23435974 192.14663696 C239.55731552 192.14023949 239.55731552 192.14023949 240.90699768 192.13371277 C241.67778436 192.13203692 242.44857103 192.13036108 243.24271488 192.12863445 C245.02742115 192.19044462 245.02742115 192.19044462 246 191 C246.09529612 187.98649762 246.12551904 184.99595894 246.11352539 181.98217773 C246.11367142 181.03593536 246.11381744 180.08969299 246.1139679 179.11477661 C246.11326836 175.97102608 246.10547409 172.82733399 246.09765625 169.68359375 C246.09579221 167.51025932 246.09436824 165.33692448 246.09336853 163.16358948 C246.08954221 157.43098805 246.07971097 151.69841177 246.06866455 145.96582031 C246.05845287 140.12109721 246.05387143 134.27637007 246.04882812 128.43164062 C246.0380888 116.954416 246.02101102 105.47721009 246 94 C243.6948186 92.8474093 242.38899291 92.87192316 239.82470703 92.86628723 C238.949776 92.86202225 238.07484497 92.85775726 237.17340088 92.85336304 C235.73018463 92.85404282 235.73018463 92.85404282 234.2578125 92.85473633 C233.24636169 92.85137772 232.23491089 92.8480191 231.19281006 92.84455872 C227.83686101 92.83503036 224.48096174 92.83310477 221.125 92.83203125 C218.8009438 92.82882037 216.4768878 92.82545643 214.15283203 92.82194519 C209.27701346 92.81594947 204.40121263 92.81410578 199.52539062 92.81469727 C193.26367609 92.814799 187.00207466 92.80113679 180.74038696 92.78392506 C175.93985466 92.77283268 171.13934996 92.77077719 166.33880615 92.77130699 C164.02943532 92.77012308 161.72006385 92.76567847 159.41070557 92.75797462 C156.18778443 92.74822883 152.96511224 92.75103112 149.7421875 92.75708008 C148.78004333 92.75146057 147.81789917 92.74584106 146.82659912 92.74005127 C145.95166809 92.74424576 145.07673706 92.74844025 144.17529297 92.75276184 C143.41280243 92.75221707 142.65031189 92.75167231 141.86471558 92.75111103 C139.75444693 92.84065894 139.75444693 92.84065894 138 95 Z M10 131 C10.33 132.98 10.66 134.96 11 137 C14.5152208 138.17174027 17.28356621 138.12709023 20.99414062 138.12939453 C21.70177048 138.13114685 22.40940033 138.13289917 23.13847351 138.13470459 C25.47775728 138.13910611 27.81696546 138.13619109 30.15625 138.1328125 C31.7814536 138.13348603 33.4066571 138.13445646 35.03186035 138.13571167 C38.43807942 138.13718634 41.84427226 138.13504148 45.25048828 138.13037109 C49.61867612 138.12467394 53.98680251 138.12795418 58.3549881 138.13394356 C61.71096256 138.13755538 65.06692244 138.13640771 68.42289734 138.13381577 C70.03366605 138.13314822 71.64443608 138.13396892 73.25520325 138.13629532 C75.5054577 138.138832 77.75561236 138.13496687 80.00585938 138.12939453 C81.28698608 138.12859894 82.56811279 138.12780334 83.88806152 138.12698364 C87.03415789 138.14266164 87.03415789 138.14266164 90 137 C90.76956136 134.65466049 90.76956136 134.65466049 91 132 C90.02299523 130.20145742 90.02299523 130.20145742 88 129 C84.68664992 128.54799342 84.68664992 128.54799342 80.82226562 128.62768555 C80.09512863 128.62403488 79.36799164 128.62038422 78.61882019 128.61662292 C76.2143928 128.60851457 73.81063876 128.62212937 71.40625 128.63671875 C69.73620606 128.63723733 68.0661615 128.63671972 66.39611816 128.63520813 C62.89565928 128.63529787 59.39543065 128.64572995 55.89501953 128.66381836 C51.40568629 128.68650563 46.91668955 128.6870498 42.42731476 128.68030071 C38.97866825 128.67696091 35.53009861 128.68359103 32.08146667 128.69342995 C30.42604474 128.69728204 28.77061426 128.69843012 27.1151886 128.6968441 C24.80253783 128.69647367 22.49032015 128.709087 20.17773438 128.7253418 C18.20274963 128.73225288 18.20274963 128.73225288 16.18786621 128.73930359 C12.84462739 128.75327662 12.84462739 128.75327662 10 131 Z M102.1484375 130.390625 C100.7800272 131.95140986 100.7800272 131.95140986 101.125 134.0625 C101.95252093 136.3511243 101.95252093 136.3511243 105 138 C107.14790929 138.31600189 107.14790929 138.31600189 109.4375 138.25 C110.19933594 138.25515625 110.96117188 138.2603125 111.74609375 138.265625 C114.21443018 137.9747292 115.857686 137.22975656 118 136 C118.25030977 133.58380177 118.25030977 133.58380177 118 131 C114.66602694 128.77735129 113.40485109 128.70324537 109.5 128.6875 C108.06140625 128.66236328 108.06140625 128.66236328 106.59375 128.63671875 C103.9668252 128.79138972 103.9668252 128.79138972 102.1484375 130.390625 Z M11 148 C10.67 149.98 10.34 151.96 10 154 C13.35197843 156.23465229 14.57791246 156.27108649 18.5 156.25 C19.4590625 156.25515625 20.418125 156.2603125 21.40625 156.265625 C24.23622897 156.17982609 24.23622897 156.17982609 27 154 C26.62095792 150.70924004 26.62095792 150.70924004 25 148 C22.64686445 147.92728259 20.29166332 147.91629132 17.9375 147.9375 C16.64714844 147.94652344 15.35679688 147.95554688 14.02734375 147.96484375 C13.02832031 147.97644531 12.02929688 147.98804688 11 148 Z M37 150 C37.16507646 152.57540213 37.16507646 152.57540213 38 155 C40.94988753 156.47494377 43.93788551 156.14735642 47.171875 156.14526367 C47.91022583 156.14862228 48.64857666 156.1519809 49.40930176 156.15544128 C51.85621816 156.16496038 54.30306622 156.16689475 56.75 156.16796875 C58.44628935 156.17118022 60.14257843 156.1745442 61.83886719 156.17805481 C65.39649091 156.18404816 68.95409033 156.18589445 72.51171875 156.18530273 C77.07849414 156.185201 81.64511444 156.19886416 86.21185303 156.21607494 C89.71533937 156.22717214 93.21878792 156.22922266 96.72229004 156.22869301 C98.4064589 156.22987615 100.09062864 156.23431654 101.77478027 156.24202538 C104.12600705 156.25178124 106.47689318 156.24896509 108.828125 156.24291992 C109.52844849 156.24853943 110.22877197 156.25415894 110.95031738 156.25994873 C114.91906942 156.33674565 114.91906942 156.33674565 118 154 C118.2500773 151.45809998 118.2500773 151.45809998 118 149 C116.30869724 147.30869724 114.2054547 147.86806824 111.94781494 147.85336304 C111.2251947 147.85381622 110.50257446 147.85426941 109.75805664 147.85473633 C108.62148872 147.84969841 108.62148872 147.84969841 107.46195984 147.84455872 C104.94467553 147.83502078 102.42745753 147.83310419 99.91015625 147.83203125 C98.16759717 147.82882064 96.42503836 147.82545672 94.68247986 147.82194519 C91.02472305 147.8159468 87.3669899 147.81410602 83.70922852 147.81469727 C79.01351071 147.81479893 74.31794398 147.80114563 69.622262 147.78392506 C66.02183836 147.77282705 62.42145149 147.77077738 58.8210125 147.77130699 C57.08939531 147.77012359 55.35777727 147.76568178 53.62617683 147.75797462 C51.20778841 147.74821889 48.78973121 147.7510351 46.37133789 147.75708008 C45.65074188 147.75146057 44.93014587 147.74584106 44.18771362 147.74005127 C40.14517317 147.65025898 40.14517317 147.65025898 37 150 Z M10 168 C10.28983269 171.30683466 10.28983269 171.30683466 12 174 C14.39269951 174.10558845 16.75667956 174.1467844 19.15014648 174.14526367 C19.89810486 174.14862228 20.64606323 174.1519809 21.41668701 174.15544128 C23.90150592 174.16497902 26.38625765 174.1668958 28.87109375 174.16796875 C30.59123259 174.17117938 32.31137115 174.17454329 34.0315094 174.17805481 C37.64218784 174.18405315 41.25284232 174.18589399 44.86352539 174.18530273 C49.49870985 174.18520107 54.13374127 174.19885428 58.76888943 174.21607494 C62.32299002 174.22717319 65.87705336 174.22922261 69.43116951 174.22869301 C71.14045807 174.22987638 72.8497475 174.23431801 74.55901909 174.24202538 C76.9462759 174.25178159 79.3331972 174.24896472 81.72045898 174.24291992 C82.78732689 174.25134918 82.78732689 174.25134918 83.87574768 174.25994873 C87.88439597 174.34376316 87.88439597 174.34376316 91 172 C90.71016731 168.69316534 90.71016731 168.69316534 89 166 C86.60730049 165.89441155 84.24332044 165.8532156 81.84985352 165.85473633 C81.10189514 165.85137772 80.35393677 165.8480191 79.58331299 165.84455872 C77.09849408 165.83502098 74.61374235 165.8331042 72.12890625 165.83203125 C70.40876741 165.82882062 68.68862885 165.82545671 66.9684906 165.82194519 C63.35781216 165.81594685 59.74715768 165.81410601 56.13647461 165.81469727 C51.50129015 165.81479893 46.86625873 165.80114572 42.23111057 165.78392506 C38.67700998 165.77282681 35.12294664 165.77077739 31.56883049 165.77130699 C29.85954193 165.77012362 28.1502525 165.76568199 26.44098091 165.75797462 C24.0537241 165.74821841 21.6668028 165.75103528 19.27954102 165.75708008 C18.21267311 165.74865082 18.21267311 165.74865082 17.12425232 165.74005127 C13.11560403 165.65623684 13.11560403 165.65623684 10 168 Z M103 166 C101.80161791 168.32854463 101.80161791 168.32854463 101 171 C101.99 172.485 101.99 172.485 103 174 C106.05456365 174.44194203 106.05456365 174.44194203 109.5 174.3125 C110.6653125 174.30863281 111.830625 174.30476562 113.03125 174.30078125 C116.11734188 174.30414419 116.11734188 174.30414419 118 172 C118.16687448 169.41645782 118.16687448 169.41645782 118 167 C115.11584117 165.55792059 112.58278472 165.90605113 109.375 165.9375 C107.59222656 165.95103516 107.59222656 165.95103516 105.7734375 165.96484375 C104.40058594 165.98224609 104.40058594 165.98224609 103 166 Z " fill="#5BB38E" transform="translate(0,54)"/>
<path d="M0 0 C1.27701874 -0.00967334 1.27701874 -0.00967334 2.57983583 -0.0195421 C3.5102743 -0.01644489 4.44071277 -0.01334769 5.39934635 -0.01015663 C6.39153945 -0.01468774 7.38373254 -0.01921886 8.40599209 -0.02388728 C11.74009191 -0.03657628 15.07402933 -0.034908 18.40815067 -0.03325844 C20.79468846 -0.03924081 23.18122432 -0.04604568 25.56775761 -0.05361366 C31.38289807 -0.06946999 37.19798902 -0.07572325 43.01315003 -0.07683842 C47.73937196 -0.0777887 52.46558051 -0.08189802 57.19179821 -0.08823967 C70.5898635 -0.10585155 83.98789674 -0.11507848 97.38597368 -0.11357872 C98.10823838 -0.11349881 98.83050307 -0.1134189 99.57465458 -0.11333656 C100.65937333 -0.11321392 100.65937333 -0.11321392 101.76600558 -0.1130888 C113.48947437 -0.11227564 125.21281475 -0.13142093 136.93624639 -0.1596133 C148.97216841 -0.18832895 161.00802779 -0.20215436 173.04398495 -0.20042574 C179.80196369 -0.19976144 186.55980779 -0.20527132 193.3177557 -0.22678185 C199.67154168 -0.24609868 206.02504271 -0.24633352 212.37883854 -0.23174858 C214.71334148 -0.22965134 217.04786195 -0.23441548 219.38233471 -0.2464695 C222.56428768 -0.26183789 225.74524776 -0.25266901 228.92717838 -0.23720741 C229.85538613 -0.24749454 230.78359388 -0.25778167 231.73992914 -0.26838052 C235.93708993 -0.22317459 238.14470919 -0.1064465 241.77672768 2.16317368 C251.81559823 12.9437199 244.72675419 31.52637963 244.72675419 46.25726891 C160.24675419 46.25726891 75.76675419 46.25726891 -11.27324581 46.25726891 C-11.27324581 7.25726891 -11.27324581 7.25726891 -8.27324581 2.25726891 C-5.50072692 0.38562267 -3.30734212 0.00634862 0 0 Z M-1.27324581 12.25726891 C-1.58376422 14.55117322 -1.58376422 14.55117322 -1.53887081 17.19476891 C-1.54144894 18.17187828 -1.54402706 19.14898766 -1.54668331 20.15570641 C-1.53894894 21.17922203 -1.53121456 22.20273766 -1.52324581 23.25726891 C-1.53098019 24.28078453 -1.53871456 25.30430016 -1.54668331 26.35883141 C-1.54410519 27.33594078 -1.54152706 28.31305016 -1.53887081 29.31976891 C-1.53661495 30.21824547 -1.53435909 31.11672203 -1.53203487 32.04242516 C-1.48133523 34.46269056 -1.48133523 34.46269056 0.72675419 36.25726891 C3.0206585 36.56778732 3.0206585 36.56778732 5.66425419 36.52289391 C6.64136356 36.52547203 7.61847294 36.52805016 8.62519169 36.53070641 C9.64870731 36.52297203 10.67222294 36.51523766 11.72675419 36.50726891 C12.75026981 36.51500328 13.77378544 36.52273766 14.82831669 36.53070641 C16.29398075 36.52683922 16.29398075 36.52683922 17.78925419 36.52289391 C19.13696903 36.51951012 19.13696903 36.51951012 20.51191044 36.51605797 C22.93217584 36.46535832 22.93217584 36.46535832 24.72675419 34.25726891 C25.0372726 31.9633646 25.0372726 31.9633646 24.99237919 29.31976891 C24.99495731 28.34265953 24.99753544 27.36555016 25.00019169 26.35883141 C24.99245731 25.33531578 24.98472294 24.31180016 24.97675419 23.25726891 C24.98448856 22.23375328 24.99222294 21.21023766 25.00019169 20.15570641 C24.9963245 18.69004234 24.9963245 18.69004234 24.99237919 17.19476891 C24.99012333 16.29629234 24.98786747 15.39781578 24.98554325 14.47211266 C24.93484361 12.05184726 24.93484361 12.05184726 22.72675419 10.25726891 C20.43284988 9.9467505 20.43284988 9.9467505 17.78925419 9.99164391 C16.81214481 9.98906578 15.83503544 9.98648766 14.82831669 9.98383141 C13.80480106 9.99156578 12.78128544 9.99930016 11.72675419 10.00726891 C10.70323856 9.99953453 9.67972294 9.99180016 8.62519169 9.98383141 C7.64808231 9.98640953 6.67097294 9.98898766 5.66425419 9.99164391 C4.76577763 9.99389977 3.86730106 9.99615562 2.94159794 9.99847984 C0.52133254 10.04917949 0.52133254 10.04917949 -1.27324581 12.25726891 Z M36.72675419 10.25726891 C33.87875602 14.52926615 34.39657103 18.23525176 34.41425419 23.25726891 C34.39814091 24.17250328 34.38202763 25.08773766 34.36542606 26.03070641 C34.36478153 26.90984703 34.364137 27.78898766 34.36347294 28.69476891 C34.36049198 29.49785484 34.35751102 30.30094078 34.35443974 31.12836266 C34.58268405 33.31350251 34.58268405 33.31350251 35.95063114 35.01752281 C38.25761324 36.62781217 39.70724592 36.64449055 42.50800419 36.65570641 C43.432262 36.65957359 44.35651981 36.66344078 45.30878544 36.66742516 C46.27171513 36.65582359 47.23464481 36.64422203 48.22675419 36.63226891 C49.67114872 36.64967125 49.67114872 36.64967125 51.14472294 36.66742516 C52.06898075 36.66355797 52.99323856 36.65969078 53.94550419 36.65570641 C55.21297489 36.65063072 55.21297489 36.65063072 56.50605106 36.6454525 C58.77426556 36.41016196 58.77426556 36.41016196 60.50287724 35.01752281 C62.06612166 32.76917007 62.10015047 31.41981317 62.09003544 28.69476891 C62.08939091 27.81562828 62.08874638 26.93648766 62.08808231 26.03070641 C62.07196903 25.11547203 62.05585575 24.20023766 62.03925419 23.25726891 C62.04247684 22.34203453 62.0456995 21.42680016 62.04901981 20.48383141 C62.10733076 15.05502088 62.10733076 15.05502088 59.72675419 10.25726891 C57.34160499 9.79166933 57.34160499 9.79166933 54.57050419 9.85883141 C53.03716434 9.85303062 53.03716434 9.85303062 51.47284794 9.84711266 C49.86603153 9.864515 49.86603153 9.864515 48.22675419 9.88226891 C47.15554325 9.87066734 46.08433231 9.85906578 44.98066044 9.84711266 C43.44732059 9.85291344 43.44732059 9.85291344 41.88300419 9.85883141 C40.47244755 9.86390709 40.47244755 9.86390709 39.03339481 9.86908531 C38.27220341 9.9971859 37.511012 10.12528648 36.72675419 10.25726891 Z M71.72675419 12.25726891 C71.41623578 14.55117322 71.41623578 14.55117322 71.46112919 17.19476891 C71.45855106 18.17187828 71.45597294 19.14898766 71.45331669 20.15570641 C71.46105106 21.17922203 71.46878544 22.20273766 71.47675419 23.25726891 C71.46901981 24.28078453 71.46128544 25.30430016 71.45331669 26.35883141 C71.45589481 27.33594078 71.45847294 28.31305016 71.46112919 29.31976891 C71.46338505 30.21824547 71.46564091 31.11672203 71.46796513 32.04242516 C71.51866477 34.46269056 71.51866477 34.46269056 73.72675419 36.25726891 C76.0206585 36.56778732 76.0206585 36.56778732 78.66425419 36.52289391 C79.64136356 36.52547203 80.61847294 36.52805016 81.62519169 36.53070641 C82.64870731 36.52297203 83.67222294 36.51523766 84.72675419 36.50726891 C85.75026981 36.51500328 86.77378544 36.52273766 87.82831669 36.53070641 C89.29398075 36.52683922 89.29398075 36.52683922 90.78925419 36.52289391 C92.13696903 36.51951012 92.13696903 36.51951012 93.51191044 36.51605797 C95.93217584 36.46535832 95.93217584 36.46535832 97.72675419 34.25726891 C98.02084551 31.96269968 98.02084551 31.96269968 97.95722294 29.31976891 C97.95528934 28.34265953 97.95335575 27.36555016 97.95136356 26.35883141 C97.93911747 25.33531578 97.92687138 24.31180016 97.91425419 23.25726891 C97.91360966 22.23375328 97.91296513 21.21023766 97.91230106 20.15570641 C98.09955482 15.04172036 98.09955482 15.04172036 96.72675419 10.25726891 C92.93515122 10.19940222 89.14366108 10.16371837 85.35175419 10.13226891 C84.27151981 10.11551109 83.19128544 10.09875328 82.07831669 10.08148766 C80.53144169 10.07181969 80.53144169 10.07181969 78.95331669 10.06195641 C78.0002161 10.05148277 77.04711552 10.04100914 76.06513309 10.03021812 C73.53443289 10.02595023 73.53443289 10.02595023 71.72675419 12.25726891 Z " fill="#5BB38E" transform="translate(11.273245811462402,-0.25726890563964844)"/>
<path d="M0 0 C30.36 0 60.72 0 92 0 C92 22.44 92 44.88 92 68 C87.81529891 64.41311335 84.04153353 61.15231468 80.30078125 57.22265625 C79.48416016 56.38025391 78.66753906 55.53785156 77.82617188 54.66992188 C76.13106721 52.91159652 74.44370839 51.14577506 72.76367188 49.37304688 C71.95091797 48.53966797 71.13816406 47.70628906 70.30078125 46.84765625 C69.20503784 45.7030896 69.20503784 45.7030896 68.0871582 44.53540039 C66.14539041 42.76264593 66.14539041 42.76264593 63.87695312 43.13427734 C61.07828427 44.42513059 59.32561384 46.35704399 57.1875 48.5625 C56.30707031 49.47 55.42664063 50.3775 54.51953125 51.3125 C51.86104484 54.14821884 49.26721809 57.021224 46.73828125 59.97265625 C44.7078395 62.34074449 42.63736733 64.67077065 40.5625 67 C39.88316406 67.763125 39.20382813 68.52625 38.50390625 69.3125 C38.00761719 69.869375 37.51132813 70.42625 37 71 C32.06585066 69.14229869 28.94056907 64.90790537 25.50976562 61.08007812 C22.56584261 57.93069174 22.56584261 57.93069174 18.5703125 56.6953125 C14.57588376 58.72287967 11.84924479 61.81632454 8.8125 65.0625 C7.57348381 66.37013862 6.33020435 67.67375526 5.08203125 68.97265625 C4.53780518 69.55281494 3.9935791 70.13297363 3.43286133 70.73071289 C2 72 2 72 0 72 C0 48.24 0 24.48 0 0 Z M14.41796875 15.71875 C10.72607431 20.74057759 9.57787659 24.66814879 10 31 C11.82177095 37.10829084 14.8288583 40.51558263 20 44 C24.78140238 46.33983521 28.94130437 46.39619999 34 45 C39.36442161 42.11146529 42.73677129 38.70691867 45.3125 33.1875 C46.48230142 27.76387522 45.90938019 23.71771814 43.3125 18.8125 C40.38062663 15.24670807 37.41052761 12.01086642 33.0625 10.1875 C32.0415625 10.0946875 32.0415625 10.0946875 31 10 C29.9275 9.896875 28.855 9.79375 27.75 9.6875 C22.39027906 10.13414341 18.1216439 11.69500416 14.41796875 15.71875 Z " fill="#5BB38E" transform="translate(146,155)"/>
<path d="M0 0 C30.36 0 60.72 0 92 0 C92 22.11 92 44.22 92 67 C84.17617465 60.29386398 84.17617465 60.29386398 80.80859375 56.73046875 C80.09123047 55.98732422 79.37386719 55.24417969 78.63476562 54.47851562 C77.15827462 52.93902767 75.68960989 51.39199885 74.22851562 49.83789062 C71.19552152 46.71753756 68.84264112 44.351443 64.796875 42.6640625 C60.8304744 43.14047374 59.20006442 45.23248753 56.8125 48.1875 C55.86131146 49.29611752 54.90946856 50.40417389 53.95703125 51.51171875 C53.47314941 52.08712402 52.98926758 52.6625293 52.49072266 53.25537109 C50.07693456 56.08028589 47.53334296 58.78263078 45 61.5 C42.16205669 64.5689387 39.43670836 67.60143308 37 71 C32.08185875 69.13653161 28.96180056 64.96303609 25.50976562 61.16796875 C22.54966192 57.9789433 22.54966192 57.9789433 18.54760742 56.63525391 C15.38470069 57.08809364 14.44435169 57.98351228 12.265625 60.28125 C11.60949219 60.95800781 10.95335937 61.63476562 10.27734375 62.33203125 C9.27380859 63.40517578 9.27380859 63.40517578 8.25 64.5 C6.90287783 65.90800905 5.55401694 67.31435739 4.203125 68.71875 C3.61176758 69.34716797 3.02041016 69.97558594 2.41113281 70.62304688 C1 72 1 72 0 72 C0 48.24 0 24.48 0 0 Z M12.5625 18.125 C10.11018793 22.63725421 9.5807771 25.88548058 10 31 C11.9555404 36.88897025 14.96955602 40.46798614 20 44 C25.01862411 45.6728747 30.27960118 46.03347349 35.29296875 44.12890625 C41.44758898 40.60703164 44.069447 36.41202765 45.9375 29.5625 C46.04053825 23.68931964 44.40123214 19.65935385 40.625 15.1875 C35.53456321 10.94546934 32.24229926 9.36705576 25.56640625 9.5859375 C19.7698165 10.52115594 16.09597099 13.59490898 12.5625 18.125 Z " fill="#5BB38E" transform="translate(18,73)"/>
<path d="M0 0 C3.94206618 1.60475041 6.66435688 4.32491102 9.640625 7.26953125 C10.43119293 8.04655647 10.43119293 8.04655647 11.23773193 8.83927917 C12.34641518 9.93349355 13.4523413 11.0305077 14.55566406 12.13012695 C16.24620166 13.80872848 17.95449356 15.46776683 19.6640625 17.12695312 C20.74072836 18.19415856 21.81628804 19.26248139 22.890625 20.33203125 C23.40304749 20.82492142 23.91546997 21.31781158 24.44342041 21.82563782 C26.7687041 24.18114569 27.94515755 25.50981411 28.31933594 28.85424805 C28.21395508 29.56234619 28.10857422 30.27044434 28 31 C21.68307984 31.1269082 15.36648906 31.21439585 9.04858398 31.2746582 C6.90002151 31.29978285 4.75154435 31.33388861 2.60327148 31.37719727 C-0.48735612 31.43793792 -3.57685263 31.46623044 -6.66796875 31.48828125 C-7.62648239 31.51408768 -8.58499603 31.5398941 -9.57255554 31.56648254 C-17.02102139 31.56960611 -17.02102139 31.56960611 -20.14575195 28.46948242 C-20.75765381 27.65455322 -21.36955566 26.83962402 -22 26 C-20.64827153 21.91620659 -18.93063758 19.62316481 -15.8125 16.6875 C-12.17433869 13.17801964 -8.79839552 9.56438059 -5.5078125 5.73046875 C-3.76065928 3.72531622 -1.91829882 1.84156687 0 0 Z " fill="#5CB28E" transform="translate(82,125)"/>
<path d="M0 0 C5.77829445 4.79253825 11.17018349 9.9199157 16.50024414 15.20507812 C17.46655752 16.1597373 18.4373542 17.1098776 19.41235352 18.05566406 C20.83528376 19.43613647 22.24405462 20.83115708 23.65234375 22.2265625 C24.48757568 23.04721191 25.32280762 23.86786133 26.18334961 24.71337891 C28 27 28 27 28 31 C21.68307984 31.1269082 15.36648906 31.21439585 9.04858398 31.2746582 C6.90002151 31.29978285 4.75154435 31.33388861 2.60327148 31.37719727 C-0.48735612 31.43793792 -3.57685263 31.46623044 -6.66796875 31.48828125 C-7.62648239 31.51408768 -8.58499603 31.5398941 -9.57255554 31.56648254 C-17.02102139 31.56960611 -17.02102139 31.56960611 -20.14575195 28.46948242 C-20.75765381 27.65455322 -21.36955566 26.83962402 -22 26 C-20.51151188 22.60655558 -18.5673138 20.21770033 -16.0625 17.5 C-15.27101562 16.63632813 -14.47953125 15.77265625 -13.6640625 14.8828125 C-12.78492188 13.93148437 -11.90578125 12.98015625 -11 12 C-9.98636302 10.89379344 -8.97336056 9.78700518 -7.9609375 8.6796875 C-5.31141081 5.78265655 -2.65687996 2.89028811 0 0 Z " fill="#5BB38E" transform="translate(210,207)"/>
<path d="M0 0 C2.44694494 1.04999284 3.83609504 2.31932688 5.70361328 4.21557617 C6.69941406 5.21911133 6.69941406 5.21911133 7.71533203 6.24291992 C8.39724609 6.94545898 9.07916016 7.64799805 9.78173828 8.37182617 C10.47912109 9.07436523 11.17650391 9.7769043 11.89501953 10.50073242 C17.03173828 15.71786947 17.03173828 15.71786947 17.03173828 16.87182617 C5.81173828 16.87182617 -5.40826172 16.87182617 -16.96826172 16.87182617 C-14.72381096 12.38292465 -12.08238972 9.58303804 -8.59326172 6.05932617 C-7.72701172 5.14376953 -7.72701172 5.14376953 -6.84326172 4.2097168 C-6.27865234 3.63801758 -5.71404297 3.06631836 -5.13232422 2.47729492 C-4.62137207 1.95288818 -4.11041992 1.42848145 -3.58398438 0.88818359 C-1.96826172 -0.12817383 -1.96826172 -0.12817383 0 0 Z " fill="#5CB38E" transform="translate(36.96826171875,139.128173828125)"/>
<path d="M0 0 C3.02671229 1.35473124 5.12136806 2.8739592 7.453125 5.22265625 C8.071875 5.84333984 8.690625 6.46402344 9.328125 7.10351562 C9.96234375 7.74998047 10.5965625 8.39644531 11.25 9.0625 C11.8996875 9.71283203 12.549375 10.36316406 13.21875 11.03320312 C18 15.85965402 18 15.85965402 18 17 C6.78 17 -4.44 17 -16 17 C-12.25711426 12.63329996 -8.68596348 8.56858559 -4.625 4.5625 C-3.75101563 3.69753906 -2.87703125 2.83257812 -1.9765625 1.94140625 C-1.32429687 1.30074219 -0.67203125 0.66007813 0 0 Z " fill="#5BB28D" transform="translate(164,221)"/>
<path d="M0 0 C3.38031589 1.18767855 3.93216817 1.89825225 6 5 C6.83571542 9.69760034 6.62775298 13.03875324 4 17.0625 C0.15043788 19.54867554 -2.54150049 19.94574232 -7 19 C-9.99661827 17.46981195 -11.50383607 16.37174733 -12.6640625 13.1640625 C-13.46115688 9.08481477 -13.17735302 7.33635919 -11.1875 3.5625 C-7.67798509 -0.54864604 -5.29011697 -0.27362674 0 0 Z " fill="#5CB28D" transform="translate(49,91)"/>
<path d="M0 0 C2.5 1.5 2.5 1.5 4 4 C4.93057474 8.74149985 4.66290063 11.95218933 2.0625 16.0625 C-2.04781067 18.66290063 -5.25850015 18.93057474 -10 18 C-12.74337994 16.35397204 -13.64802249 15.1790016 -14.55859375 12.12890625 C-15.20880449 8.58291159 -15.20684731 6.50078823 -13.8125 3.125 C-9.77099524 -1.61331593 -5.77621665 -1.58609228 0 0 Z " fill="#5CB28D" transform="translate(179,174)"/>
<path d="M0 0 C2.57161458 0.03255208 5.14322917 0.06510417 7.71484375 0.09765625 C7.71484375 3.39765625 7.71484375 6.69765625 7.71484375 10.09765625 C0 10.1953125 0 10.1953125 -2.28515625 10.09765625 C-3.28515625 9.09765625 -3.28515625 9.09765625 -3.41796875 7.28515625 C-3.41539063 6.56328125 -3.4128125 5.84140625 -3.41015625 5.09765625 C-3.41273437 4.37578125 -3.4153125 3.65390625 -3.41796875 2.91015625 C-3.21558021 0.14814788 -2.76566638 0.11819087 0 0 Z " fill="#55B895" transform="translate(57.28515625,17.90234375)"/>
<path d="M0 0 C3.3 0 6.6 0 10 0 C10 3.3 10 6.6 10 10 C6.7 10 3.4 10 0 10 C0 6.7 0 3.4 0 0 Z " fill="#5CB28D" transform="translate(91,18)"/>
<path d="M0 0 C3.3 0 6.6 0 10 0 C10 3.3 10 6.6 10 10 C6.7 10 3.4 10 0 10 C0 6.7 0 3.4 0 0 Z " fill="#5BB28D" transform="translate(18,18)"/>
</svg>
