<?xml version="1.0" encoding="UTF-8"?>
<svg version="1.1" xmlns="http://www.w3.org/2000/svg" width="256" height="256">
<path d="M0 0 C1.7325 0.11214844 1.7325 0.11214844 3.5 0.2265625 C19.74528776 1.43670809 33.41301733 5.98861994 44.625 18.25 C46.7768218 21.27733699 48.77132804 24.37264798 50.76171875 27.5078125 C55.08624034 33.87220276 60.23309425 37.13560864 67.625 39.25 C70.71974975 39.74654316 73.81230821 39.97078038 76.9375 40.1875 C89.53561386 41.32227894 99.93404841 44.37312482 108.41015625 54.3515625 C115.36719209 64.02645755 116.27639458 73.58411521 115.625 85.25 C115.58777832 85.94109863 115.55055664 86.63219727 115.51220703 87.34423828 C114.81266123 98.6779053 112.69267695 108.11544369 105.25 117.125 C104.38375 117.82625 103.5175 118.5275 102.625 119.25 C102.06296875 119.73855469 101.5009375 120.22710937 100.921875 120.73046875 C95.65502693 125.06598393 90.09587606 127.22785123 83.625 129.25 C84.55119141 129.50910156 84.55119141 129.50910156 85.49609375 129.7734375 C92.14710137 131.98031674 95.69291771 134.97796853 100.125 140.328125 C103.53813213 144.31722317 107.29791122 147.91231436 111.10864258 151.51928711 C116.40211725 156.66884266 120.70058241 162.55763219 121.0625 170.125 C120.98137006 177.84248542 117.94538328 184.70428133 112.66796875 190.33984375 C110.75 192 110.75 192 107.625 194.25 C105.1875 193.5 105.1875 193.5 102.625 192.25 C101.76171875 190.40625 101.76171875 190.40625 101.625 188.25 C102.953125 186.390625 102.953125 186.390625 104.875 184.5 C108.53492466 180.61361294 110.08247402 177.33126206 111.625 172.25 C110.89539063 172.37117187 110.16578125 172.49234375 109.4140625 172.6171875 C102.75006378 173.68671816 96.07522592 174.62709039 89.375 175.4375 C88.64361816 175.53337402 87.91223633 175.62924805 87.15869141 175.72802734 C77.30616423 176.87192057 69.497569 174.79272385 60.3125 171.25 C58.37951477 170.51922171 56.44594339 169.78999149 54.51171875 169.0625 C53.24654419 168.57716797 53.24654419 168.57716797 51.95581055 168.08203125 C49.85765841 167.33305225 47.7951519 166.74524861 45.625 166.25 C45.439375 166.95125 45.25375 167.6525 45.0625 168.375 C42.85935556 172.78128888 39.03498511 176.04500745 34.625 178.25 C34.15601037 181.0659849 34.15601037 181.0659849 34 184.3125 C33.88785156 185.96958984 33.88785156 185.96958984 33.7734375 187.66015625 C33.69996094 188.94212891 33.69996094 188.94212891 33.625 190.25 C32.305 190.58 30.985 190.91 29.625 191.25 C29.80964366 195.59184202 29.80964366 195.59184202 31.625 199.25 C31.5625 202.5625 31.5625 202.5625 30.625 206.25 C26.61045854 209.88220417 23.01052999 211.15714603 17.625 211.25 C11.42600852 210.01966581 8.15971524 207.39140399 4.625 202.25 C3.4187748 198.63132441 3.51683082 195.32493749 3.5625 191.5625 C3.56701172 190.86060547 3.57152344 190.15871094 3.57617188 189.43554688 C3.58793073 187.70699462 3.60586546 185.97848635 3.625 184.25 C0.655 184.25 -2.315 184.25 -5.375 184.25 C-5.32859375 185.40757812 -5.2821875 186.56515625 -5.234375 187.7578125 C-5.19683752 189.29684906 -5.16043949 190.8359137 -5.125 192.375 C-5.09148437 193.13554687 -5.05796875 193.89609375 -5.0234375 194.6796875 C-4.93098204 200.04210402 -5.8282575 202.98740122 -9.375 207.25 C-13.17169914 210.22579122 -16.57135138 211.08716445 -21.375 211.25 C-25.79728857 210.3224788 -28.68077986 208.97982117 -31.8125 205.6875 C-34.06683802 202.17073268 -34.49653018 200.39625071 -34.47265625 196.2421875 C-34.46782227 194.76298828 -34.46782227 194.76298828 -34.46289062 193.25390625 C-34.45032227 191.70509766 -34.45032227 191.70509766 -34.4375 190.125 C-34.43298828 189.08472656 -34.42847656 188.04445312 -34.42382812 186.97265625 C-34.41201952 184.39838038 -34.39555075 181.82421854 -34.375 179.25 C-34.99729492 179.21036133 -35.61958984 179.17072266 -36.26074219 179.12988281 C-59.96223223 177.55558201 -87.70146594 175.31828986 -107.13671875 159.84765625 C-108.74133812 157.77734293 -108.83947211 156.4774177 -108.875 153.875 C-108.9059375 153.12476563 -108.936875 152.37453125 -108.96875 151.6015625 C-107.98884468 147.7206217 -106.70081706 146.52784854 -103.375 144.25 C-99.02480365 143.55369037 -94.71046053 143.59645726 -90.3125 143.625 C-77.82106366 143.625 -67.45008637 142.19773157 -56.375 136.25 C-55.715 136.25 -55.055 136.25 -54.375 136.25 C-54.375 133.61 -54.375 130.97 -54.375 128.25 C-56.2003125 127.9096875 -56.2003125 127.9096875 -58.0625 127.5625 C-66.58297678 125.65855828 -77.6319126 123.03685904 -82.6484375 115.28125 C-85.58797697 107.06318266 -82.72528882 99.54960758 -79.6875 91.8125 C-79.3486377 90.9359375 -79.00977539 90.059375 -78.66064453 89.15625 C-76.67285451 84.35960611 -75.04106117 80.93782326 -70.375 78.25 C-67.5625 77.5 -67.5625 77.5 -65.375 77.25 C-65.39820313 76.15945312 -65.42140625 75.06890625 -65.4453125 73.9453125 C-65.76093642 52.41542412 -64.80298898 31.08508816 -49.375 14.5 C-35.45447737 1.20704191 -18.5235048 -1.43752255 0 0 Z " fill="#6C2AD3" transform="translate(108.375,22.75)"/>
<path d="M0 0 C1.7325 0.11214844 1.7325 0.11214844 3.5 0.2265625 C19.74528776 1.43670809 33.41301733 5.98861994 44.625 18.25 C46.7768218 21.27733699 48.77132804 24.37264798 50.76171875 27.5078125 C55.08624034 33.87220276 60.23309425 37.13560864 67.625 39.25 C70.71974975 39.74654316 73.81230821 39.97078038 76.9375 40.1875 C89.53561386 41.32227894 99.93404841 44.37312482 108.41015625 54.3515625 C115.36719209 64.02645755 116.27639458 73.58411521 115.625 85.25 C115.58777832 85.94109863 115.55055664 86.63219727 115.51220703 87.34423828 C114.81266123 98.6779053 112.69267695 108.11544369 105.25 117.125 C104.38375 117.82625 103.5175 118.5275 102.625 119.25 C102.06296875 119.73855469 101.5009375 120.22710937 100.921875 120.73046875 C95.65502693 125.06598393 90.09587606 127.22785123 83.625 129.25 C84.55119141 129.50910156 84.55119141 129.50910156 85.49609375 129.7734375 C92.14710137 131.98031674 95.69291771 134.97796853 100.125 140.328125 C103.53813213 144.31722317 107.29791122 147.91231436 111.10864258 151.51928711 C116.40211725 156.66884266 120.70058241 162.55763219 121.0625 170.125 C120.98137006 177.84248542 117.94538328 184.70428133 112.66796875 190.33984375 C110.75 192 110.75 192 107.625 194.25 C105.1875 193.5 105.1875 193.5 102.625 192.25 C101.76171875 190.40625 101.76171875 190.40625 101.625 188.25 C102.953125 186.390625 102.953125 186.390625 104.875 184.5 C108.53492466 180.61361294 110.08247402 177.33126206 111.625 172.25 C110.89539063 172.37117187 110.16578125 172.49234375 109.4140625 172.6171875 C102.75006378 173.68671816 96.07522592 174.62709039 89.375 175.4375 C88.64361816 175.53337402 87.91223633 175.62924805 87.15869141 175.72802734 C77.30616423 176.87192057 69.497569 174.79272385 60.3125 171.25 C58.37951477 170.51922171 56.44594339 169.78999149 54.51171875 169.0625 C53.24654419 168.57716797 53.24654419 168.57716797 51.95581055 168.08203125 C49.85765841 167.33305225 47.7951519 166.74524861 45.625 166.25 C45.439375 166.95125 45.25375 167.6525 45.0625 168.375 C42.85935556 172.78128888 39.03498511 176.04500745 34.625 178.25 C34.15601037 181.0659849 34.15601037 181.0659849 34 184.3125 C33.88785156 185.96958984 33.88785156 185.96958984 33.7734375 187.66015625 C33.69996094 188.94212891 33.69996094 188.94212891 33.625 190.25 C32.305 190.58 30.985 190.91 29.625 191.25 C29.80964366 195.59184202 29.80964366 195.59184202 31.625 199.25 C31.5625 202.5625 31.5625 202.5625 30.625 206.25 C26.61045854 209.88220417 23.01052999 211.15714603 17.625 211.25 C11.42600852 210.01966581 8.15971524 207.39140399 4.625 202.25 C3.4187748 198.63132441 3.51683082 195.32493749 3.5625 191.5625 C3.56701172 190.86060547 3.57152344 190.15871094 3.57617188 189.43554688 C3.58793073 187.70699462 3.60586546 185.97848635 3.625 184.25 C0.655 184.25 -2.315 184.25 -5.375 184.25 C-5.32859375 185.40757812 -5.2821875 186.56515625 -5.234375 187.7578125 C-5.19683752 189.29684906 -5.16043949 190.8359137 -5.125 192.375 C-5.09148437 193.13554687 -5.05796875 193.89609375 -5.0234375 194.6796875 C-4.93098204 200.04210402 -5.8282575 202.98740122 -9.375 207.25 C-13.17169914 210.22579122 -16.57135138 211.08716445 -21.375 211.25 C-25.79728857 210.3224788 -28.68077986 208.97982117 -31.8125 205.6875 C-34.06683802 202.17073268 -34.49653018 200.39625071 -34.47265625 196.2421875 C-34.46782227 194.76298828 -34.46782227 194.76298828 -34.46289062 193.25390625 C-34.45032227 191.70509766 -34.45032227 191.70509766 -34.4375 190.125 C-34.43298828 189.08472656 -34.42847656 188.04445312 -34.42382812 186.97265625 C-34.41201952 184.39838038 -34.39555075 181.82421854 -34.375 179.25 C-34.99729492 179.21036133 -35.61958984 179.17072266 -36.26074219 179.12988281 C-59.96223223 177.55558201 -87.70146594 175.31828986 -107.13671875 159.84765625 C-108.74133812 157.77734293 -108.83947211 156.4774177 -108.875 153.875 C-108.9059375 153.12476563 -108.936875 152.37453125 -108.96875 151.6015625 C-107.98884468 147.7206217 -106.70081706 146.52784854 -103.375 144.25 C-99.02480365 143.55369037 -94.71046053 143.59645726 -90.3125 143.625 C-77.82106366 143.625 -67.45008637 142.19773157 -56.375 136.25 C-55.715 136.25 -55.055 136.25 -54.375 136.25 C-54.375 133.61 -54.375 130.97 -54.375 128.25 C-56.2003125 127.9096875 -56.2003125 127.9096875 -58.0625 127.5625 C-66.58297678 125.65855828 -77.6319126 123.03685904 -82.6484375 115.28125 C-85.58797697 107.06318266 -82.72528882 99.54960758 -79.6875 91.8125 C-79.3486377 90.9359375 -79.00977539 90.059375 -78.66064453 89.15625 C-76.67285451 84.35960611 -75.04106117 80.93782326 -70.375 78.25 C-67.5625 77.5 -67.5625 77.5 -65.375 77.25 C-65.39820313 76.15945312 -65.42140625 75.06890625 -65.4453125 73.9453125 C-65.76093642 52.41542412 -64.80298898 31.08508816 -49.375 14.5 C-35.45447737 1.20704191 -18.5235048 -1.43752255 0 0 Z M-34.375 13.25 C-35.18710938 13.76949219 -35.99921875 14.28898437 -36.8359375 14.82421875 C-47.18291795 22.19773139 -53.507581 32.40893819 -56.125 44.80078125 C-57.80604243 56.22953497 -57.58217025 67.72495943 -57.375 79.25 C-55.03766094 80.13187135 -52.69985637 81.01248234 -50.36157227 81.8918457 C-48.26244069 82.68159352 -46.16398464 83.47313889 -44.06616211 84.26635742 C-38.47107537 86.37320707 -32.86859814 88.44248621 -27.22747803 90.4223175 C-24.47074945 91.39002943 -21.71799924 92.36882311 -18.96514893 93.34750366 C-17.61378612 93.82402573 -16.26036884 94.29476121 -14.90496826 94.75967407 C-12.99543277 95.41519631 -11.09321438 96.09191704 -9.19140625 96.76953125 C-8.09256104 97.15214111 -6.99371582 97.53475098 -5.86157227 97.92895508 C-3.375 99.25 -3.375 99.25 -2.44897461 101.3425293 C-2.42456299 101.97199463 -2.40015137 102.60145996 -2.375 103.25 C-2.705 103.58 -3.035 103.91 -3.375 104.25 C-7.72748184 103.86138555 -11.89660492 103.17333962 -16.15625 102.20703125 C-16.95095703 102.02760986 -17.74566406 101.84818848 -18.56445312 101.66333008 C-19.46067383 101.45873169 -19.46067383 101.45873169 -20.375 101.25 C-21.91343466 105.32691877 -23.42765189 109.41241716 -24.9375 113.5 C-25.37513672 114.65886719 -25.81277344 115.81773437 -26.26367188 117.01171875 C-26.67294922 118.12675781 -27.08222656 119.24179688 -27.50390625 120.390625 C-28.07733765 121.93024902 -28.07733765 121.93024902 -28.66235352 123.50097656 C-29.39648695 126.33288558 -29.67264753 127.63617232 -28.375 130.25 C-26.57870162 131.45860581 -26.57870162 131.45860581 -24.296875 132.20703125 C-23.46542969 132.51447266 -22.63398437 132.82191406 -21.77734375 133.13867188 C-20.90207031 133.44353516 -20.02679688 133.74839844 -19.125 134.0625 C-18.26519531 134.38669922 -17.40539062 134.71089844 -16.51953125 135.04492188 C-12.00528238 136.66907767 -9.11182977 137.6742826 -4.375 136.25 C-3.59125 135.569375 -2.8075 134.88875 -2 134.1875 C1.43147679 131.65474332 3.44551115 131.79405576 7.625 132.25 C11.00531589 133.43767855 11.55716817 134.14825225 13.625 137.25 C14.16416146 139.9102023 14.35870098 142.54262663 14.625 145.25 C25.27238689 149.90153188 36.17628672 153.87183198 47.07373047 157.89038086 C50.27860937 159.07305754 53.48115339 160.26191019 56.68359375 161.45117188 C58.71861309 162.20349545 60.7537645 162.95546189 62.7890625 163.70703125 C63.74728912 164.06320023 64.70551575 164.4193692 65.69277954 164.78633118 C66.57485077 165.1105455 67.456922 165.43475983 68.36572266 165.76879883 C69.53054672 166.19918205 69.53054672 166.19918205 70.71890259 166.63825989 C72.60874522 167.35186208 72.60874522 167.35186208 74.625 167.25 C76.05330852 163.44295001 77.47736055 159.63433843 78.89746094 155.82421875 C79.38131411 154.52788194 79.86633485 153.2319803 80.35253906 151.93652344 C81.05058589 150.07601495 81.74410947 148.21381135 82.4375 146.3515625 C82.85644531 145.23088379 83.27539062 144.11020508 83.70703125 142.95556641 C84.73209969 140.41051637 84.73209969 140.41051637 84.625 138.25 C83.93834259 138.00245468 83.25168518 137.75490936 82.54421997 137.49986267 C75.98561644 135.13497996 69.42781192 132.76789691 62.87083626 130.39850521 C59.50203614 129.18125737 56.13296172 127.96478216 52.76318359 126.75024414 C37.98267312 121.42242224 23.22251538 116.06548174 8.625 110.25 C8.625 108.6 8.625 106.95 8.625 105.25 C13.71738498 105.80883567 18.12932064 106.99932096 22.89453125 108.90234375 C24.28254164 109.437818 25.67107053 109.97194974 27.06005859 110.50488281 C27.77538757 110.7809436 28.49071655 111.05700439 29.22772217 111.34143066 C46.39324497 117.94563595 46.39324497 117.94563595 64.53417969 120.22509766 C66.88539451 120.25310138 69.22254947 120.38279535 71.5703125 120.51171875 C81.8590244 120.95105209 89.53185435 120.48963108 97.6328125 113.5234375 C106.20968872 104.80301523 107.29108092 93.96388128 107.625 82.25 C107.68816406 81.25355469 107.75132812 80.25710937 107.81640625 79.23046875 C108.23440394 69.58955438 104.93264124 63.31867542 98.796875 56.07421875 C92.77298512 51.01458462 86.34651807 49.53498235 78.6875 48.625 C55.56482767 45.65284319 55.56482767 45.65284319 47.87109375 37.359375 C46.37064464 35.36922318 44.98825035 33.33612662 43.625 31.25 C35.04991777 19.16167653 26.9400019 11.97982099 12 9.4375 C-2.83720869 7.24293855 -21.2026044 4.77590186 -34.375 13.25 Z " fill="#020203" transform="translate(108.375,22.75)"/>
<path d="M0 0 C0.59893066 0.13639893 1.19786133 0.27279785 1.81494141 0.41333008 C2.61077637 0.59275146 3.40661133 0.77217285 4.2265625 0.95703125 C5.01111816 1.13468018 5.79567383 1.3123291 6.60400391 1.49536133 C13.32667161 2.98723284 13.32667161 2.98723284 20 2 C23.5625 3.1875 23.5625 3.1875 27 5 C27.30852905 5.656017 27.61705811 6.312034 27.93493652 6.9879303 C29.36102467 9.68203146 30.63802582 9.99387826 33.47851562 11.00561523 C34.41304565 11.34689957 35.34757568 11.6881839 36.3104248 12.03981018 C37.33204712 12.39663376 38.35366943 12.75345734 39.40625 13.12109375 C40.47137817 13.50631699 41.53650635 13.89154022 42.63391113 14.28843689 C44.91454149 15.11258092 47.19729811 15.93086012 49.48193359 16.74383545 C54.09277889 18.3901888 58.68667944 20.08116821 63.28149414 21.77163696 C69.0168572 23.87992978 74.75895313 25.96974634 80.5 28.0625 C82.89586881 28.93675175 85.2917023 29.81110029 87.6875 30.68554688 C93.45792899 32.79147424 99.22878392 34.89623064 105 37 C101.89239571 47.53358129 101.89239571 47.53358129 100.17578125 52.1328125 C99.86962891 52.9578125 99.56347656 53.7828125 99.24804688 54.6328125 C98.93931641 55.45523438 98.63058594 56.27765625 98.3125 57.125 C97.99216797 57.98609375 97.67183594 58.8471875 97.34179688 59.734375 C96.5639986 61.82398231 95.78282482 63.91227282 95 66 C87.66163199 63.89968783 80.49979586 61.44537247 73.33984375 58.8046875 C72.2687587 58.41177521 71.19767365 58.01886292 70.09413147 57.61404419 C67.85071351 56.79020906 65.6078355 55.96490219 63.36547852 55.13818359 C59.91775841 53.86772538 56.46779731 52.60349723 53.01757812 51.33984375 C50.83319767 50.53682726 48.64894805 49.73345478 46.46484375 48.9296875 C45.42956039 48.55053192 44.39427704 48.17137634 43.32762146 47.7807312 C42.37895706 47.43011627 41.43029266 47.07950134 40.45288086 46.71826172 C39.61478378 46.40976288 38.77668671 46.10126404 37.91319275 45.78341675 C36 45 36 45 35 44 C34.8453125 42.1128125 34.8453125 42.1128125 34.6875 40.1875 C34.33843595 37.04592351 34.10565143 36.13291632 32.0625 33.5625 C28.28925991 30.70398478 25.73880731 30.52611927 21 31 C19.515 32.2684375 19.515 32.2684375 18 33.5625 C15 36 15 36 11.8359375 35.828125 C7.60835273 34.91544886 3.67318822 33.68972823 -0.375 32.1875 C-1.09816406 31.93935547 -1.82132812 31.69121094 -2.56640625 31.43554688 C-7.75072261 29.52425576 -7.75072261 29.52425576 -8.82641602 27.26196289 C-9.06374175 24.16938487 -8.20986671 22.04292979 -7.12890625 19.140625 C-6.71962891 18.02558594 -6.31035156 16.91054687 -5.88867188 15.76171875 C-5.45103516 14.60285156 -5.01339844 13.44398438 -4.5625 12.25 C-3.9118457 10.48849609 -3.9118457 10.48849609 -3.24804688 8.69140625 C-2.17496453 5.79054627 -1.09197781 2.89378869 0 0 Z " fill="#E0CA6F" transform="translate(88,124)"/>
<path d="M0 0 C3.33640764 0.98990763 6.668294 1.99439362 10 3 C11.55267578 3.46043701 11.55267578 3.46043701 13.13671875 3.93017578 C16.4401841 4.9298825 19.71908716 5.99129927 23 7.0625 C24.13050781 7.39443359 25.26101562 7.72636719 26.42578125 8.06835938 C29.60249777 9.13170341 32.24031733 10.0960732 35 12 C36.15722173 14.67957059 36.4877451 16.78488173 36.59375 19.69311523 C36.79596164 22.13880303 36.79596164 22.13880303 38.7890625 23.77758789 C42.11560751 25.61681171 45.33997299 25.68225746 49 25 C50.010625 24.319375 51.02125 23.63875 52.0625 22.9375 C55.23772091 20.84320536 56.21473084 20.81356881 59.82641602 21.45483398 C64.48436855 22.62311524 68.94908944 24.37168041 73.4375 26.0625 C74.45521484 26.43955078 75.47292969 26.81660156 76.52148438 27.20507812 C79.01670181 28.13053436 81.50936119 29.06230651 84 30 C84 34 84 34 82.85546875 35.5625 C68.83301059 47.64742882 49.29903503 45.68576737 32 45 C22.64332365 44.23761678 12.64642071 42.25990916 6.1953125 34.95703125 C0.41639366 26.92461056 -0.30665005 19.11347951 -0.125 9.5 C-0.11597656 8.5821875 -0.10695312 7.664375 -0.09765625 6.71875 C-0.07432432 4.47888444 -0.04159235 2.23958817 0 0 Z " fill="#6929CE" transform="translate(62,154)"/>
<path d="M0 0 C0.8353125 0.19916016 0.8353125 0.19916016 1.6875 0.40234375 C10.85734674 2.85878402 10.85734674 2.85878402 20 2 C23.5625 3.1875 23.5625 3.1875 27 5 C27.30852905 5.656017 27.61705811 6.312034 27.93493652 6.9879303 C29.36102467 9.68203146 30.63802582 9.99387826 33.47851562 11.00561523 C34.41304565 11.34689957 35.34757568 11.6881839 36.3104248 12.03981018 C37.33204712 12.39663376 38.35366943 12.75345734 39.40625 13.12109375 C40.47137817 13.50631699 41.53650635 13.89154022 42.63391113 14.28843689 C44.91454149 15.11258092 47.19729811 15.93086012 49.48193359 16.74383545 C54.09277889 18.3901888 58.68667944 20.08116821 63.28149414 21.77163696 C69.0168572 23.87992978 74.75895313 25.96974634 80.5 28.0625 C82.89586881 28.93675175 85.2917023 29.81110029 87.6875 30.68554688 C93.45792899 32.79147424 99.22878392 34.89623064 105 37 C104.55123384 38.64846769 104.09069512 40.29373455 103.625 41.9375 C103.36976563 42.85402344 103.11453125 43.77054688 102.8515625 44.71484375 C102 47 102 47 100 48 C97.58551025 47.34129333 97.58551025 47.34129333 94.50097656 46.22436523 C93.34124329 45.80855194 92.18151001 45.39273865 90.9866333 44.96432495 C89.70456869 44.49591711 88.42256779 44.02733487 87.140625 43.55859375 C85.81083679 43.07847734 84.48081499 42.59900746 83.15057373 42.12014771 C79.58389257 40.83399533 76.02072368 39.53836377 72.45819092 38.24077225 C68.79563798 36.90844763 65.1300231 35.5845995 61.46484375 34.25952148 C40.27807847 26.59364129 19.11625774 18.85813344 -2 11 C-1.125 3.375 -1.125 3.375 0 0 Z " fill="#F7DE7A" transform="translate(88,124)"/>
<path d="M0 0 C4.68312173 1.1082078 9.15187994 2.89180473 13.6484375 4.58569336 C14.66615234 4.96274414 15.68386719 5.33979492 16.73242188 5.72827148 C19.22763931 6.65372772 21.72029869 7.58549987 24.2109375 8.52319336 C24.2109375 12.52319336 24.2109375 12.52319336 23.06640625 14.08569336 C15.41780386 20.6774631 5.7242251 23.67689888 -4.30859375 23.62084961 C-5.33017578 23.61762695 -6.35175781 23.6144043 -7.40429688 23.61108398 C-8.45939453 23.60270508 -9.51449219 23.59432617 -10.6015625 23.58569336 C-11.67599609 23.58118164 -12.75042969 23.57666992 -13.85742188 23.57202148 C-16.50135933 23.56027065 -19.14518202 23.54384123 -21.7890625 23.52319336 C-21.95962492 16.62653883 -21.6395088 10.50823721 -17.7890625 4.52319336 C-15.41758911 3.36574029 -13.50767635 3.04491232 -10.890625 2.78491211 C-8.6166847 2.68680653 -8.6166847 2.68680653 -6.6640625 0.83569336 C-4.25661502 -0.84951988 -2.81297747 -0.46628159 0 0 Z " fill="#7C5AB0" transform="translate(121.7890625,175.476806640625)"/>
<path d="M0 0 C4.17385648 0.59320179 7.89849941 1.54926389 11.85009766 3.00952148 C12.97791656 3.42342636 14.10573547 3.83733124 15.26773071 4.26377869 C16.4710202 4.71169266 17.67430969 5.15960663 18.9140625 5.62109375 C20.17371119 6.08609809 21.43350987 6.55069626 22.69345093 7.01490784 C25.32550533 7.98591087 27.9562206 8.96042868 30.5859375 9.93774414 C33.95093292 11.18821959 37.31836263 12.43197162 40.68671608 13.67336941 C43.28511097 14.6314304 45.8825843 15.59196823 48.47974777 16.55336189 C50.32291411 17.23549139 52.16653479 17.91639283 54.01016235 18.59727478 C55.13167694 19.01433182 56.25319153 19.43138885 57.40869141 19.86108398 C58.88712021 20.40949196 58.88712021 20.40949196 60.39541626 20.96897888 C62.67404871 21.8709726 64.83169705 22.8619266 67 24 C66.69078116 25.45903258 66.37751201 26.91720722 66.0625 28.375 C65.88847656 29.18710938 65.71445313 29.99921875 65.53515625 30.8359375 C65 33 65 33 64 35 C56.66163199 32.89968783 49.49979586 30.44537247 42.33984375 27.8046875 C41.2687587 27.41177521 40.19767365 27.01886292 39.09413147 26.61404419 C36.85071351 25.79020906 34.6078355 24.96490219 32.36547852 24.13818359 C28.91775841 22.86772538 25.46779731 21.60349723 22.01757812 20.33984375 C19.83319767 19.53682726 17.64894805 18.73345478 15.46484375 17.9296875 C14.42956039 17.55053192 13.39427704 17.17137634 12.32762146 16.7807312 C11.37895706 16.43011627 10.43029266 16.07950134 9.45288086 15.71826172 C8.19573524 15.25551346 8.19573524 15.25551346 6.91319275 14.78341675 C5 14 5 14 4 13 C3.814375 11.14375 3.814375 11.14375 3.625 9.25 C3.21719251 5.53293505 2.21115303 3.07638682 0 0 Z " fill="#F4DC79" transform="translate(119,155)"/>
<path d="M0 0 C7.24432005 1.53021734 11.98645309 4.15448876 16.66015625 9.90234375 C19.82589903 14.85862327 20.38788942 19.31896119 20.375 25.125 C20.37258301 26.25723999 20.37258301 26.25723999 20.37011719 27.41235352 C20.22889871 33.89663527 18.73098335 39.11505272 16 45 C15.21701485 46.80728375 14.4457904 48.61971675 13.6875 50.4375 C13.34074219 51.21996094 12.99398437 52.00242188 12.63671875 52.80859375 C11.89410378 55.36446489 12.05398975 56.53632626 13 59 C13.66 59.99 14.32 60.98 15 62 C15.1875 64.625 15.1875 64.625 15 67 C14 68 14 68 11.1875 68.375 C8 68 8 68 5.6875 65.625 C2.47614241 60.62955486 2.10758333 56.88854464 3 51 C4.69498728 45.76674211 6.96740582 40.74434329 9.24389648 35.74243164 C11.77509085 29.90932406 12.06909241 23.16669137 9.9375 17.125 C7.52014301 13.22603712 5.25075802 11.59512981 1 10 C-2.55486143 9.25160812 -5.68534093 8.99406304 -9.3125 9.0625 C-12 9 -12 9 -14 7 C-14.3125 4.5 -14.3125 4.5 -14 2 C-9.47055062 -1.01963292 -5.30875529 -0.53087553 0 0 Z " fill="#000000" transform="translate(236,152)"/>
<path d="M0 0 C0.14695312 1.21623047 0.14695312 1.21623047 0.296875 2.45703125 C1.3275082 10.0890478 3.06190618 16.88296692 6 24 C-2.74012341 24.48159864 -10.53933596 23.12432257 -19 21 C-20.17046875 20.7215625 -21.3409375 20.443125 -22.546875 20.15625 C-30.97677573 17.98320892 -38.79632382 14.95180931 -46 10 C-46.33 9.01 -46.66 8.02 -47 7 C-46.33057373 6.98018066 -45.66114746 6.96036133 -44.97143555 6.93994141 C-41.87646029 6.84344834 -38.78204901 6.73428366 -35.6875 6.625 C-34.63498047 6.5940625 -33.58246094 6.563125 -32.49804688 6.53125 C-22.7110568 6.16988421 -13.70423893 5.2517674 -4.875 0.8046875 C-3 0 -3 0 0 0 Z " fill="#6A29D0" transform="translate(55,168)"/>
<path d="M0 0 C4.60431077 1.13612863 9.00152522 2.85291208 13.40625 4.59375 C11.31662654 11.00212237 9.0665438 17.33828297 6.71875 23.65625 C6.39841797 24.52185547 6.07808594 25.38746094 5.74804688 26.27929688 C4.96873716 28.38459627 4.18812196 30.48940114 3.40625 32.59375 C-0.84797094 32.08989233 -4.51410994 31.4625847 -8.40625 29.65625 C-9.15519531 29.31722656 -9.90414062 28.97820312 -10.67578125 28.62890625 C-12.59375 27.59375 -12.59375 27.59375 -14.59375 25.59375 C-15.14756821 19.8685644 -13.84138362 15.5647033 -11.78125 10.34375 C-11.52021484 9.63734375 -11.25917969 8.9309375 -10.99023438 8.203125 C-8.51610462 1.75206076 -7.26984091 -1.19355597 0 0 Z " fill="#B55050" transform="translate(47.59375,108.40625)"/>
<path d="M0 0 C5 1 5 1 15 5 C11.7 14.24 8.4 23.48 5 33 C-5.125 30.75 -5.125 30.75 -9 29 C-8.42033198 22.43963016 -6.24886441 16.69819446 -3.9375 10.5625 C-3.37192383 9.03592773 -3.37192383 9.03592773 -2.79492188 7.47851562 C-1.86946564 4.98329819 -0.93769349 2.49063881 0 0 Z " fill="#D8DCDF" transform="translate(67,116)"/>
<path d="M0 0 C4.83654924 0.55940166 9.03941427 1.56513745 13.58984375 3.28515625 C14.78544922 3.73310547 15.98105469 4.18105469 17.21289062 4.64257812 C19.05657227 5.34543945 19.05657227 5.34543945 20.9375 6.0625 C22.20613503 6.54036495 23.4750134 7.01758441 24.74414062 7.49414062 C27.83187615 8.65644411 30.91698986 9.82523229 34 11 C34 11.33 34 11.66 34 12 C33.39671875 12.09796875 32.7934375 12.1959375 32.171875 12.296875 C26.9862607 13.14920905 26.9862607 13.14920905 22.875 16.1875 C22.25625 16.785625 21.6375 17.38375 21 18 C15.54080215 17.62778196 10.70796433 16.07371973 5.625 14.1875 C4.54025391 13.8152832 4.54025391 13.8152832 3.43359375 13.43554688 C1.3515625 12.66796875 1.3515625 12.66796875 -2 11 C-2.87691963 8.66260222 -3.14194332 7.48836443 -2.44140625 5.078125 C-1.22070312 2.5390625 -1.22070312 2.5390625 0 0 Z " fill="#F7DE7A" transform="translate(82,142)"/>
<path d="M0 0 C0.16276042 2.01822917 0.32552083 4.03645833 0.48828125 6.0546875 C0.87393036 8.39519216 0.87393036 8.39519216 4 10 C4.1875 13.625 4.1875 13.625 4 17 C2.824375 17.433125 2.824375 17.433125 1.625 17.875 C-1.09671632 18.84912254 -1.09671632 18.84912254 -3 21 C-8.68348624 21.5412844 -8.68348624 21.5412844 -11 21 C-13.78411358 18.54049159 -13.99491217 17.06376741 -14.29296875 13.328125 C-14.27316751 11.96843965 -14.23759202 10.6089066 -14.1875 9.25 C-14.17396484 8.55261719 -14.16042969 7.85523438 -14.14648438 7.13671875 C-14.1112945 5.42414459 -14.05749155 3.71197059 -14 2 C-12.22978678 1.663389 -10.45880326 1.33082707 -8.6875 1 C-7.70136719 0.814375 -6.71523437 0.62875 -5.69921875 0.4375 C-3 0 -3 0 0 0 Z " fill="#7B5AAF" transform="translate(134,204)"/>
<path d="M0 0 C4.51617599 -0.07654536 8.59085217 -0.10228696 13 1 C13.0809313 3.60478883 13.14045434 6.20706653 13.1875 8.8125 C13.22520508 9.91948242 13.22520508 9.91948242 13.26367188 11.04882812 C13.33741363 16.48113735 13.33741363 16.48113735 11.70703125 18.98828125 C8.80257109 20.70968899 6.27227817 20.35060123 3 20 C0.96761387 18.47884725 0.11114772 17.62043536 -0.34057617 15.09887695 C-0.32486572 14.40238037 -0.30915527 13.70588379 -0.29296875 12.98828125 C-0.28330078 12.23095703 -0.27363281 11.47363281 -0.26367188 10.69335938 C-0.23853516 9.90767578 -0.21339844 9.12199219 -0.1875 8.3125 C-0.17396484 7.51521484 -0.16042969 6.71792969 -0.14648438 5.89648438 C-0.11117089 3.93070033 -0.05736447 1.96526418 0 0 Z " fill="#7D5BB1" transform="translate(82,205)"/>
<path d="M0 0 C4.15938479 1.87929377 6.39795959 4.2084554 9 8 C9 10.3125 9 10.3125 8 13 C7.47722585 14.60353523 6.95653603 16.20775091 6.4375 17.8125 C5.963125 19.194375 5.48875 20.57625 5 22 C-1.435 22.495 -1.435 22.495 -8 23 C-5.99307639 14.97230556 -3.3411405 7.56708897 0 0 Z " fill="#D5D9DC" transform="translate(199,167)"/>
<path d="M0 0 C6.83981276 0.51621228 12.63876684 2.48590969 19 5 C17.33333333 10 15.66666667 15 14 20 C7.20364121 16.99729838 3.18258509 10.48757729 0 4 C0 2.68 0 1.36 0 0 Z " fill="#C95959" transform="translate(42,108)"/>
<path d="M0 0 C0.09796875 0.81082031 0.1959375 1.62164062 0.296875 2.45703125 C1.33479862 10.14303458 3.11984989 16.79962473 6 24 C2.37 24 -1.26 24 -5 24 C-4.34 23.34 -3.68 22.68 -3 22 C-3.474375 21.113125 -3.94875 20.22625 -4.4375 19.3125 C-6.8331949 13.84308334 -6.74338983 7.88433663 -7 2 C-4.35261084 0.5393715 -3.10551666 0 0 0 Z " fill="#5E25BA" transform="translate(55,168)"/>
<path d="M0 0 C2.5625 0.1875 2.5625 0.1875 4.5625 2.1875 C7.32515454 2.41149902 9.54683445 2.19114315 12.25 1.5625 C13.3946875 1.376875 13.3946875 1.376875 14.5625 1.1875 C16.5625 3.1875 16.5625 3.1875 16.5625 5.0625 C14.99561234 8.39213628 12.76395422 9.4961657 9.5625 11.1875 C5.42034504 11.87785916 3.90832595 11.38977556 0.25 9.25 C-2.4375 7.1875 -2.4375 7.1875 -3.4375 6.1875 C-3.5625 3.6875 -3.5625 3.6875 -3.4375 1.1875 C-2.4375 0.1875 -2.4375 0.1875 0 0 Z " fill="#040109" transform="translate(173.4375,115.8125)"/>
<path d="M0 0 C1.41764994 0.93601246 2.83407568 1.8738792 4.25 2.8125 C5.03890625 3.33457031 5.8278125 3.85664063 6.640625 4.39453125 C8.81092481 5.87134122 10.91413768 7.40689873 13 9 C12.34 11.31 11.68 13.62 11 16 C6.16371695 15.00956295 1.52381127 14.04301154 -3 12 C-2.48898407 7.65636456 -1.70656894 4.01668054 0 0 Z " fill="#C0C4C7" transform="translate(61,133)"/>
<path d="M0 0 C3.78615497 0.10344686 6.26149765 0.75224794 9.1875 3.3125 C9.1875 4.6325 9.1875 5.9525 9.1875 7.3125 C5.46170911 9.79636059 3.60038598 9.6929212 -0.8125 9.3125 C-3.75 8.0625 -3.75 8.0625 -5.8125 6.3125 C-5.8125 0.97205366 -5.29869201 0.43431902 0 0 Z " fill="#F39ECB" transform="translate(88.8125,60.6875)"/>
<path d="M0 0 C4.04790179 0.02582393 6.47952997 0.7180232 9.75 3.25 C8.875 7.125 8.875 7.125 7.75 8.25 C5.96162378 8.37524459 4.16771786 8.42573676 2.375 8.4375 C1.39789063 8.45167969 0.42078125 8.46585938 -0.5859375 8.48046875 C-3.25 8.25 -3.25 8.25 -6.25 6.25 C-5.1465576 0.10224949 -5.1465576 0.10224949 0 0 Z " fill="#F8A2CB" transform="translate(144.25,65.75)"/>
<path d="M0 0 C0 2.31 0 4.62 0 7 C-4.29 7.66 -8.58 8.32 -13 9 C-13 11.64 -13 14.28 -13 17 C-13.33 17 -13.66 17 -14 17 C-14 12.05 -14 7.1 -14 2 C-3.375 0 -3.375 0 0 0 Z " fill="#6B4E98" transform="translate(134,204)"/>
<path d="M0 0 C4.51617599 -0.07654536 8.59085217 -0.10228696 13 1 C13 3.31 13 5.62 13 8 C8.17639811 8.19294408 4.50353262 7.75747614 0 6 C0 4.02 0 2.04 0 0 Z " fill="#6F519D" transform="translate(82,205)"/>
<path d="M0 0 C7 4 14 8 21 12 C21 12.66 21 13.32 21 14 C13.39162534 11.92957946 6.2271408 9.14169523 -1 6 C-0.67 4.02 -0.34 2.04 0 0 Z " fill="#D4BF69" transform="translate(80,146)"/>
<path d="M0 0 C0.721875 0.103125 1.44375 0.20625 2.1875 0.3125 C2.8828125 2.07421875 2.8828125 2.07421875 3.1875 4.3125 C1.34451609 7.17999982 -1.02827224 9.3584578 -3.8125 11.3125 C-6.75 11.25 -6.75 11.25 -8.8125 10.3125 C-8.5109013 6.79384855 -7.80644038 5.30492548 -5.5625 2.5 C-2.8125 0.3125 -2.8125 0.3125 0 0 Z " fill="#7555A7" transform="translate(112.8125,161.6875)"/>
<path d="M0 0 C4.55555556 0.55555556 4.55555556 0.55555556 6 2 C6.46357616 8.25827815 6.46357616 8.25827815 4.75 11 C3 12 3 12 0.875 11.75 C-1 11 -1 11 -2 10 C-2.27314815 4.26388889 -2.27314815 4.26388889 -2 2 C-1.34 1.34 -0.68 0.68 0 0 Z " fill="#0A0414" transform="translate(100,50)"/>
<path d="M0 0 C1.875 0.75 1.875 0.75 2.875 1.75 C3.23397436 8.21153846 3.23397436 8.21153846 0.875 11.75 C-1.5625 11.375 -1.5625 11.375 -4.125 10.75 C-5.52435013 7.95129973 -5.37765405 5.84501208 -5.125 2.75 C-3.53345125 0.28309944 -2.95833673 -0.34803962 0 0 Z " fill="#090313" transform="translate(137.125,53.25)"/>
<path d="M0 0 C2.125 0.9375 2.125 0.9375 4 2 C3.67 3.65 3.34 5.3 3 7 C0.625 7.625 0.625 7.625 -2 8 C-2.66 7.34 -3.32 6.68 -4 6 C-2.25 1.125 -2.25 1.125 0 0 Z " fill="#5D24B7" transform="translate(71,101)"/>
<path d="M0 0 C2.125 0.375 2.125 0.375 4 1 C4.625 2.875 4.625 2.875 5 5 C4.34 5.66 3.68 6.32 3 7 C0.875 6.625 0.875 6.625 -1 6 C-1.625 4.125 -1.625 4.125 -2 2 C-1.34 1.34 -0.68 0.68 0 0 Z " fill="#0E051B" transform="translate(171,80)"/>
<path d="M0 0 C1.65 0.33 3.3 0.66 5 1 C5 2.65 5 4.3 5 6 C3.125 6.625 3.125 6.625 1 7 C0.34 6.34 -0.32 5.68 -1 5 C-0.625 2.375 -0.625 2.375 0 0 Z " fill="#0A0414" transform="translate(191,82)"/>
<path d="M0 0 C1.65 0 3.3 0 5 0 C5.625 1.875 5.625 1.875 6 4 C5.34 4.66 4.68 5.32 4 6 C1.875 5.625 1.875 5.625 0 5 C0 3.35 0 1.7 0 0 Z " fill="#6327C3" transform="translate(92,109)"/>
<path d="M0 0 C1.65 1.65 3.3 3.3 5 5 C2.69 5.33 0.38 5.66 -2 6 C-1.34 4.02 -0.68 2.04 0 0 Z " fill="#414850" transform="translate(214,182)"/>
</svg>
