<?xml version="1.0" encoding="UTF-8"?>
<svg version="1.1" xmlns="http://www.w3.org/2000/svg" width="256" height="256">
<path d="M0 0 C4.16347012 3.4964018 8.08707008 7.22822917 12 11 C12.71800781 11.65484375 13.43601563 12.3096875 14.17578125 12.984375 C20.46536293 18.88322115 25.23469978 25.86116307 30 33 C30.63035156 33.93457031 31.26070312 34.86914062 31.91015625 35.83203125 C49.23044184 63.41034475 53.95913247 99.78984875 46.83911133 131.37744141 C40.98202063 154.57300651 29.50045466 174.76553935 13 192 C11.97519531 193.11955078 11.97519531 193.11955078 10.9296875 194.26171875 C4.66722196 200.88236958 -2.44348262 205.97963336 -10 211 C-10.93328125 211.6290625 -11.8665625 212.258125 -12.828125 212.90625 C-40.39820716 230.23601593 -76.79464759 234.95805078 -108.37744141 227.83911133 C-132.12223889 221.84333447 -152.44853072 209.91829939 -170 193 C-171.07701172 192.01773438 -171.07701172 192.01773438 -172.17578125 191.015625 C-178.46536293 185.11677885 -183.23469978 178.13883693 -188 171 C-188.63035156 170.06542969 -189.26070312 169.13085938 -189.91015625 168.16796875 C-207.23044184 140.58965525 -211.95913247 104.21015125 -204.83911133 72.62255859 C-198.84333447 48.87776111 -186.91829939 28.55146928 -170 11 C-169.34515625 10.28199219 -168.6903125 9.56398437 -168.015625 8.82421875 C-162.11677885 2.53463707 -155.13883693 -2.23469978 -148 -7 C-147.06542969 -7.63035156 -146.13085938 -8.26070312 -145.16796875 -8.91015625 C-101.47012457 -36.35415281 -40.12596623 -31.83598863 0 0 Z " fill="#E8F2FA" transform="translate(207,26)"/>
<path d="M0 0 C4.16347012 3.4964018 8.08707008 7.22822917 12 11 C12.71800781 11.65484375 13.43601563 12.3096875 14.17578125 12.984375 C20.46536293 18.88322115 25.23469978 25.86116307 30 33 C30.63035156 33.93457031 31.26070312 34.86914062 31.91015625 35.83203125 C49.23044184 63.41034475 53.95913247 99.78984875 46.83911133 131.37744141 C40.98202063 154.57300651 29.50045466 174.76553935 13 192 C11.97519531 193.11955078 11.97519531 193.11955078 10.9296875 194.26171875 C4.66722196 200.88236958 -2.44348262 205.97963336 -10 211 C-10.93328125 211.6290625 -11.8665625 212.258125 -12.828125 212.90625 C-40.39820716 230.23601593 -76.79464759 234.95805078 -108.37744141 227.83911133 C-132.12223889 221.84333447 -152.44853072 209.91829939 -170 193 C-171.07701172 192.01773438 -171.07701172 192.01773438 -172.17578125 191.015625 C-178.46536293 185.11677885 -183.23469978 178.13883693 -188 171 C-188.63035156 170.06542969 -189.26070312 169.13085938 -189.91015625 168.16796875 C-207.23044184 140.58965525 -211.95913247 104.21015125 -204.83911133 72.62255859 C-198.84333447 48.87776111 -186.91829939 28.55146928 -170 11 C-169.34515625 10.28199219 -168.6903125 9.56398437 -168.015625 8.82421875 C-162.11677885 2.53463707 -155.13883693 -2.23469978 -148 -7 C-147.06542969 -7.63035156 -146.13085938 -8.26070312 -145.16796875 -8.91015625 C-101.47012457 -36.35415281 -40.12596623 -31.83598863 0 0 Z M-102 -8 C-103.19367188 -7.7628125 -104.38734375 -7.525625 -105.6171875 -7.28125 C-121.81604491 -3.39663192 -137.389929 4.07615943 -150 15 C-150.99 15.83015625 -151.98 16.6603125 -153 17.515625 C-170.40973191 32.47988915 -182.9010801 52.56475242 -188 75 C-188.33902344 76.11632812 -188.67804688 77.23265625 -189.02734375 78.3828125 C-193.28372561 94.21176672 -192.45626321 113.33555962 -188 129 C-187.80664062 129.69222656 -187.61328125 130.38445312 -187.4140625 131.09765625 C-182.87956202 146.96840793 -176.05357157 161.6105192 -165 174 C-164.34902344 174.79277344 -163.69804687 175.58554688 -163.02734375 176.40234375 C-149.83030697 192.01678166 -130.84663232 204.70413697 -111 210 C-110.33548828 210.17756836 -109.67097656 210.35513672 -108.98632812 210.53808594 C-90.41428282 215.31398484 -70.56759638 216.28216104 -52 211 C-51.30777344 210.80664062 -50.61554688 210.61328125 -49.90234375 210.4140625 C-34.04335254 205.88292215 -19.36924869 199.06384355 -7 188 C-5.75863281 186.95392578 -5.75863281 186.95392578 -4.4921875 185.88671875 C15.83477572 168.38812503 30.83716148 141.03548149 33 114 C34.91428516 82.99955404 27.28529987 54.02766127 7 30 C6.33355469 29.19949219 5.66710937 28.39898437 4.98046875 27.57421875 C-12.67946262 7.11415412 -39.81788641 -7.74422294 -67 -10 C-71.02115126 -10.16353266 -75.03827117 -10.2242135 -79.0625 -10.25 C-80.06772705 -10.2593457 -81.0729541 -10.26869141 -82.10864258 -10.27832031 C-88.94370563 -10.24928958 -95.32347069 -9.4318708 -102 -8 Z " fill="#063131" transform="translate(207,26)"/>
<path d="M0 0 C0.92904144 -0.00700928 1.85808289 -0.01401855 2.8152771 -0.02124023 C5.88106322 -0.03882099 8.94592352 -0.02719696 12.01171875 -0.01367188 C14.14493995 -0.01636676 16.27815995 -0.02024915 18.41137695 -0.02526855 C22.88016465 -0.03116372 27.34863234 -0.02259982 31.81738281 -0.00390625 C37.54420952 0.01888304 43.27028638 0.0057601 48.99708557 -0.01819611 C53.4014653 -0.03265341 57.80566739 -0.02804834 62.21005249 -0.01768494 C64.32156462 -0.01501748 66.43309291 -0.01828807 68.54458618 -0.02760315 C71.49630424 -0.03776737 74.44680971 -0.02226895 77.3984375 0 C78.70619644 -0.01214539 78.70619644 -0.01214539 80.04037476 -0.02453613 C84.06851699 0.03173617 86.21343828 0.22736123 89.74145508 2.33508301 C91.69921875 4.51757813 91.69921875 4.51757813 92.32421875 7.95507812 C91.52314306 12.52120956 90.37050969 13.72054262 86.69921875 16.51757812 C83.59661789 17.24150516 80.573378 17.20140857 77.3984375 17.16455078 C76.46939606 17.17331238 75.54035461 17.18207397 74.5831604 17.19110107 C71.51720246 17.21307825 68.45269093 17.19854796 65.38671875 17.18164062 C63.25349654 17.18500923 61.12027619 17.18986222 58.98706055 17.19613647 C54.51820588 17.20350555 50.0498512 17.19280079 45.58105469 17.16943359 C39.85408226 17.14094626 34.12828138 17.15734998 28.40135193 17.18729591 C23.9969399 17.20536767 19.59280542 17.19961131 15.18838501 17.18665695 C13.07687237 17.18332263 10.96533449 17.18741092 8.85385132 17.19905472 C5.90188907 17.21176104 2.95182121 17.19238879 0 17.16455078 C-1.30775894 17.17973251 -1.30775894 17.17973251 -2.64193726 17.19522095 C-6.9888133 17.11931476 -8.78006665 16.9142934 -12.34301758 14.19979858 C-14.30078125 11.51757812 -14.30078125 11.51757812 -14.92578125 7.95507812 C-14.30078125 4.51757812 -14.30078125 4.51757812 -12.34301758 2.33508301 C-8.15169115 -0.16891584 -4.79725548 -0.04455295 0 0 Z " fill="#002C2C" transform="translate(89.30078125,119.482421875)"/>
<path d="M0 0 C0.91928787 -0.00554901 1.83857574 -0.01109802 2.78572083 -0.01681519 C5.81926885 -0.02860946 8.85132244 -0.00433815 11.88476562 0.02148438 C13.99556409 0.0231956 16.10636467 0.02312968 18.21716309 0.0213623 C22.63896034 0.02301543 27.06025054 0.04171256 31.48193359 0.07324219 C37.14815088 0.11291944 42.81370403 0.11728731 48.48003387 0.10977936 C52.83809486 0.10670894 57.19600671 0.11883282 61.55403137 0.13591003 C63.64320439 0.14293835 65.73239431 0.14606477 67.82157898 0.1452179 C70.74204013 0.14701681 73.66170747 0.1684071 76.58203125 0.1953125 C77.44451981 0.1923819 78.30700836 0.18945129 79.19563293 0.18643188 C83.86804262 0.2528041 87.00335439 0.56755979 90.79101562 3.61523438 C92.33688438 6.70697189 92.08461084 9.2095299 91.79101562 12.61523438 C90.3581543 14.80944824 90.3581543 14.80944824 87.79101562 16.61523438 C84.66455216 17.21097462 81.5790857 17.16151164 78.40429688 17.1328125 C77.45428802 17.13982178 76.50427917 17.14683105 75.52548218 17.15405273 C72.38452951 17.171661 69.24447749 17.15999965 66.10351562 17.14648438 C63.9216291 17.14917847 61.73974374 17.15306019 59.55786133 17.15808105 C54.98474702 17.16397995 50.41194519 17.15540029 45.83886719 17.13671875 C39.97403593 17.11392927 34.10993683 17.12705021 28.24513245 17.15100861 C23.7395678 17.16545582 19.23417703 17.16086548 14.72860718 17.15049744 C12.56602899 17.14782719 10.40343506 17.15111035 8.24087524 17.16041565 C5.21940232 17.17056325 2.19911861 17.15510463 -0.82226562 17.1328125 C-1.71797272 17.14090942 -2.61367981 17.14900635 -3.53652954 17.15734863 C-9.56371373 17.07487626 -9.56371373 17.07487626 -12.76049805 14.79772949 C-14.92417183 11.53763143 -14.81263075 9.43832808 -14.20898438 5.61523438 C-10.08910207 -0.0280779 -6.48381458 -0.09970732 0 0 Z " fill="#053030" transform="translate(89.208984375,164.384765625)"/>
<path d="M0 0 C0.95000885 -0.00700928 1.9000177 -0.01401855 2.8788147 -0.02124023 C6.01976736 -0.0388485 9.15981939 -0.02718715 12.30078125 -0.01367188 C14.48266778 -0.01636597 16.66455313 -0.02024769 18.84643555 -0.02526855 C23.41954986 -0.03116745 27.99235169 -0.02258779 32.56542969 -0.00390625 C38.43026095 0.01888323 44.29436004 0.00576229 50.15916443 -0.01819611 C54.66472907 -0.03264332 59.17011985 -0.02805298 63.6756897 -0.01768494 C65.83826789 -0.01501469 68.00086181 -0.01829785 70.16342163 -0.02760315 C73.18489455 -0.03775075 76.20517826 -0.02229213 79.2265625 0 C80.57012314 -0.01214539 80.57012314 -0.01214539 81.94082642 -0.02453613 C87.96558398 0.05790304 87.96558398 0.05790304 91.16870117 2.33117676 C93.29709418 5.55254292 93.15192678 7.74705938 92.61328125 11.51757812 C90.7461962 13.88255252 89.29266694 15.17788528 86.61328125 16.51757812 C83.64988449 16.63717311 80.70929773 16.69598836 77.74487305 16.71044922 C76.82602325 16.71862671 75.90717346 16.7268042 74.96047974 16.73522949 C71.91115984 16.7600996 68.86188653 16.7766031 65.8125 16.79101562 C64.25247222 16.79900114 64.25247222 16.79900114 62.66092873 16.80714798 C57.15685386 16.83388579 51.65280172 16.85325923 46.14868164 16.86767578 C40.45875518 16.88433081 34.76940713 16.92911426 29.07969952 16.98004723 C24.70881979 17.01367428 20.33807816 17.02524822 15.96708107 17.03090286 C13.86948027 17.03762722 11.77188894 17.05287987 9.67441368 17.07679367 C6.73908475 17.10835208 3.80532653 17.10849595 0.86987305 17.10107422 C0.00267136 17.11747955 -0.86453033 17.13388489 -1.75801086 17.15078735 C-6.10200596 17.10580516 -7.86482975 16.91435831 -11.43009949 14.20376587 C-13.38671875 11.51757812 -13.38671875 11.51757812 -13.94921875 7.95507812 C-13.38671875 4.51757812 -13.38671875 4.51757812 -11.93823242 2.33508301 C-8.09663651 -0.40137865 -4.60991361 -0.04167224 0 0 Z " fill="#053030" transform="translate(88.38671875,74.482421875)"/>
</svg>
