<?xml version="1.0" encoding="UTF-8"?>
<svg version="1.1" xmlns="http://www.w3.org/2000/svg" width="256" height="256">
<path d="M0 0 C2.44173909 1.31592508 4.25452072 2.48371582 6.375 4.1875 C7.5880518 5.10741715 8.80162026 6.02665329 10.015625 6.9453125 C10.9756543 7.6863623 10.9756543 7.6863623 11.95507812 8.44238281 C15.61781341 11.23228863 19.38075012 13.88365512 23.125 16.5625 C30.14713942 21.62576938 37.09763899 26.77487645 44 32 C44.01401855 30.81241089 44.01401855 30.81241089 44.02832031 29.60083008 C44.08209344 26.00409292 44.16572963 22.40864648 44.25 18.8125 C44.26417969 17.56662109 44.27835938 16.32074219 44.29296875 15.03710938 C44.32519531 13.83505859 44.35742188 12.63300781 44.390625 11.39453125 C44.41157227 10.28956299 44.43251953 9.18459473 44.45410156 8.04614258 C45.14435293 4.19450288 46.04655031 2.57791406 49 0 C51.82700975 -0.50980441 54.046848 -0.7032597 56.87109375 -0.6640625 C57.63043716 -0.66884613 58.38978058 -0.67362976 59.1721344 -0.67855835 C60.77501501 -0.6819543 62.37796517 -0.67277277 63.98071289 -0.65185547 C66.42687514 -0.62511614 68.86843461 -0.65158747 71.31445312 -0.68359375 C72.87501008 -0.68028886 74.43556418 -0.67388099 75.99609375 -0.6640625 C77.0869352 -0.67924423 77.0869352 -0.67924423 78.19981384 -0.69473267 C81.69741482 -0.6145436 83.95253034 -0.02724895 86.99121094 1.71704102 C90.21563206 6.98670446 89.4060152 12.15752246 89.14453125 18.19140625 C89.10964283 20.17267298 89.07485443 22.15394691 89.04570293 24.13530636 C88.96949085 29.00418657 88.84815301 33.86952572 88.64038086 38.73461914 C87.38923038 53.62877662 87.38923038 53.62877662 91.50250244 67.40081787 C95.09067624 71.21255609 99.20626669 73.6689443 103.89273071 75.92074585 C107.43873743 77.73686042 110.55307816 80.13916186 113.75 82.5 C114.31808884 82.89626083 114.88617767 83.29252167 115.47148132 83.70079041 C117.00306565 84.76956491 118.50299059 85.8833119 120 87 C121.18335938 87.85078125 121.18335938 87.85078125 122.390625 88.71875 C124.53771203 91.76219375 124.65110087 93.97584499 124.47607422 97.64990234 C123.63008999 101.82602756 121.25178484 104.60529975 118.5625 107.8125 C117.4618993 109.19504168 116.36164243 110.57785714 115.26171875 111.9609375 C114.71177246 112.63737305 114.16182617 113.31380859 113.59521484 114.01074219 C111.26281009 116.91928732 109.07262345 119.92669574 106.875 122.9375 C103.24468085 127.87765957 103.24468085 127.87765957 101 129 C95.85551474 129.38826304 93.27228108 128.79426301 89 126 C89.00999275 127.86255684 89.00999275 127.86255684 89.02018738 129.76274109 C89.08098334 141.46049136 89.12596543 153.1582096 89.15543652 164.85608196 C89.17109719 170.87018604 89.19234309 176.88416265 89.22631836 182.89819336 C89.25889704 188.70127937 89.27684999 194.50424271 89.28463173 200.3074131 C89.29017788 202.52221419 89.30100805 204.73700851 89.31719017 206.95175743 C89.33894427 210.05221479 89.34196772 213.15216424 89.34057617 216.25268555 C89.351362 217.16978302 89.36214783 218.08688049 89.3732605 219.0317688 C89.34993517 223.82969436 89.17744003 227.12993905 86 231 C83.0450725 232.47746375 80.40411037 232.13283879 77.10476685 232.14044189 C76.38717504 232.14341302 75.66958324 232.14638414 74.93024623 232.1494453 C72.51354443 232.15815196 70.09689205 232.15964219 67.68017578 232.16113281 C65.95240167 232.16575957 64.22462858 232.17078404 62.49685669 232.17617798 C57.79437757 232.18931711 53.09191274 232.1957498 48.38941813 232.20018864 C45.45359892 232.20311674 42.51778364 232.20722102 39.5819664 232.21169281 C30.40253788 232.22537131 21.22311832 232.23503642 12.04368031 232.2388947 C1.43596914 232.24337742 -9.1716133 232.26093377 -19.77928531 232.2898953 C-27.97125511 232.3114875 -36.16318862 232.32159765 -44.35518658 232.32293582 C-49.25141729 232.32398556 -54.14752705 232.32992912 -59.04372787 232.34775543 C-63.64838378 232.36419378 -68.25282726 232.36641232 -72.85750198 232.35761642 C-74.54901446 232.35684379 -76.24053816 232.36121847 -77.93202209 232.37107468 C-80.23853652 232.38372808 -82.54429107 232.37795401 -84.85079956 232.36749268 C-86.78819913 232.36969252 -86.78819913 232.36969252 -88.76473808 232.3719368 C-92.21414597 231.97538105 -93.6041996 231.46824751 -96 229 C-96.91486416 226.25540752 -97.12379643 224.66575333 -97.12025452 221.84284973 C-97.12162918 220.99731033 -97.12300385 220.15177094 -97.12442017 219.28060913 C-97.11902725 217.89417709 -97.11902725 217.89417709 -97.11352539 216.47973633 C-97.11367142 215.50394119 -97.11381744 214.52814606 -97.1139679 213.52278137 C-97.11327038 210.29250884 -97.10548545 207.06229373 -97.09765625 203.83203125 C-97.0957915 201.59429455 -97.09436787 199.35655744 -97.09336853 197.11882019 C-97.08954784 191.22513708 -97.07972135 185.33147856 -97.06866455 179.43780518 C-97.05844081 173.42533704 -97.05386884 167.41286494 -97.04882812 161.40039062 C-97.03809871 149.60024961 -97.02102763 137.80012685 -97 126 C-97.7528125 126.4846875 -98.505625 126.969375 -99.28125 127.46875 C-102.84179091 129.47411212 -104.968675 129.57590357 -109 129 C-114.86211586 123.78186456 -119.34990525 117.28055529 -124 111 C-124.61222412 110.18692383 -124.61222412 110.18692383 -125.23681641 109.35742188 C-132.43927296 99.71470797 -132.43927296 99.71470797 -133 94.6875 C-130.91702894 87.0065442 -121.90100435 82.3188397 -115.625 77.875 C-114.03249814 76.73575248 -112.44005178 75.59642739 -110.84765625 74.45703125 C-110.04215332 73.88291504 -109.23665039 73.30879883 -108.40673828 72.71728516 C-104.61574629 70.01229046 -100.83837007 67.28854675 -97.0625 64.5625 C-96.32338379 64.02931152 -95.58426758 63.49612305 -94.82275391 62.94677734 C-89.35724879 58.99756254 -83.92359031 55.0065265 -78.5 51 C-68.64592179 43.72057378 -58.71425666 36.55169676 -48.77050781 29.39550781 C-46.53389858 27.78534493 -44.29795185 26.17426932 -42.0625 24.5625 C-41.33119873 24.03527344 -40.59989746 23.50804688 -39.84643555 22.96484375 C-33.31737747 18.24810429 -26.83397626 13.47024679 -20.36743164 8.66821289 C-18.90177915 7.58287892 -17.4312445 6.50409562 -15.95507812 5.43310547 C-14.26051452 4.19096156 -12.60302528 2.89853917 -10.953125 1.59765625 C-7.13319828 -0.46894431 -4.25204257 -0.85738601 0 0 Z " fill="#000101" transform="translate(132,12)"/>
<path d="M0 0 C3.90363119 2.49785925 7.61619274 5.19822289 11.3125 7.9921875 C13.02414821 9.27032358 14.73640197 10.54764907 16.44921875 11.82421875 C17.74738525 12.79415771 17.74738525 12.79415771 19.07177734 13.78369141 C22.89430116 16.62225709 26.75777779 19.40249431 30.625 22.1796875 C37.71090846 27.27792339 44.74525662 32.44279589 51.76342773 37.63378906 C57.27773772 41.70585952 62.83101398 45.71799495 68.43847656 49.66088867 C70.66321761 51.23283491 72.69412726 52.74881476 74.625 54.6796875 C74.87109566 56.5499897 74.87109566 56.5499897 74.86550903 58.86843872 C74.86963303 60.18517075 74.86963303 60.18517075 74.87384033 61.52850342 C74.8630545 62.9764328 74.8630545 62.9764328 74.85205078 64.45361328 C74.85234283 65.46827667 74.85263489 66.48294006 74.85293579 67.52835083 C74.85153852 70.89398649 74.8359586 74.25940284 74.8203125 77.625 C74.81658378 79.95384602 74.81373615 82.2826936 74.81173706 84.61154175 C74.80408949 90.75022693 74.78443134 96.88881793 74.7623291 103.02746582 C74.74189486 109.28782883 74.73274053 115.54820702 74.72265625 121.80859375 C74.70118651 134.09900643 74.66599521 146.38932441 74.625 158.6796875 C65.385 158.6796875 56.145 158.6796875 46.625 158.6796875 C46.62089111 156.36807617 46.61678223 154.05646484 46.61254883 151.67480469 C46.5953551 144.03911483 46.55086 136.40376013 46.49290943 128.76827621 C46.45861135 124.13858302 46.43352511 119.50922079 46.42944336 114.87939453 C46.42516639 110.41167338 46.39675435 105.94469917 46.35156822 101.477211 C46.33857384 99.77241618 46.33429242 98.06753205 46.33884621 96.36269379 C46.34373878 93.97502394 46.31772411 91.58954857 46.28442383 89.20214844 C46.29736229 88.14370979 46.29736229 88.14370979 46.31056213 87.06388855 C46.22976285 83.61051776 45.8256671 81.92081342 43.59623718 79.24188232 C39.82385235 77.25846609 36.58734847 77.1177511 32.42578125 77.16210938 C31.61378265 77.1551001 30.80178406 77.14809082 29.96517944 77.14086914 C27.2889354 77.12330612 24.61375425 77.13490549 21.9375 77.1484375 C20.07332151 77.14574209 18.20914439 77.14185926 16.3449707 77.13684082 C12.44110711 77.13094808 8.53761001 77.13950148 4.63378906 77.15820312 C-0.36666537 77.18099258 -5.36626102 77.16786829 -10.36668396 77.14391327 C-14.21519423 77.12944922 -18.06350138 77.13406406 -21.91201782 77.14442444 C-23.75558575 77.14709005 -25.59917221 77.14382779 -27.44271851 77.13450623 C-30.02090196 77.12433053 -32.59770076 77.13985505 -35.17578125 77.16210938 C-35.93541168 77.15401245 -36.69504211 77.14591553 -37.47769165 77.13757324 C-40.93683005 77.19280347 -43.27074934 77.62487537 -46.34623718 79.24188232 C-49.04279878 82.48212893 -49.08380323 85.16263623 -49.03442383 89.20214844 C-49.05014938 90.329562 -49.05014938 90.329562 -49.06619263 91.47975159 C-49.09494045 93.9582753 -49.088652 96.43540195 -49.08203125 98.9140625 C-49.09514656 100.6347224 -49.11045027 102.3553669 -49.12785339 104.07598877 C-49.1677363 108.60028184 -49.17789592 113.12417247 -49.18188477 117.64862061 C-49.19121006 122.2671736 -49.22861976 126.88548953 -49.26367188 131.50390625 C-49.3282815 140.56254465 -49.3588979 149.62083285 -49.375 158.6796875 C-58.615 158.6796875 -67.855 158.6796875 -77.375 158.6796875 C-77.6011065 145.25800588 -77.78448608 131.83759297 -77.89312172 118.41443634 C-77.94526722 112.18116898 -78.015969 105.94927422 -78.12939453 99.71679688 C-78.23821417 93.69960594 -78.29787604 87.68373327 -78.32377243 81.66563416 C-78.3422213 79.37217963 -78.3782504 77.07879569 -78.43230057 74.78590393 C-78.83939993 56.79734602 -78.83939993 56.79734602 -75.20196533 51.53727722 C-72.66366833 49.47701389 -70.32303117 48.06488756 -67.375 46.6796875 C-66.22093111 45.86835148 -65.08253155 45.03378155 -63.96875 44.16796875 C-62.9478125 43.44996094 -61.926875 42.73195312 -60.875 41.9921875 C-59.67151111 41.14113936 -58.46840565 40.2895488 -57.265625 39.4375 C-56.32299805 38.77089355 -56.32299805 38.77089355 -55.36132812 38.09082031 C-51.76725663 35.53750993 -48.19706748 32.95114612 -44.625 30.3671875 C-43.09245491 29.25910491 -41.55990276 28.15103208 -40.02734375 27.04296875 C-38.87661377 26.21079834 -38.87661377 26.21079834 -37.70263672 25.36181641 C-35.38757966 23.68877853 -33.07100186 22.01786942 -30.75390625 20.34765625 C-29.997146 19.80157715 -29.24038574 19.25549805 -28.46069336 18.69287109 C-26.95659785 17.60894016 -25.45092224 16.52719813 -23.94360352 15.44775391 C-20.27148211 12.81042588 -16.64704681 10.13350797 -13.0859375 7.34765625 C-12.06729614 6.56285889 -12.06729614 6.56285889 -11.02807617 5.76220703 C-9.75075313 4.77442746 -8.48446828 3.77214651 -7.23168945 2.75341797 C-3.09883966 -0.41793561 -3.09883966 -0.41793561 0 0 Z " fill="#5BB28D" transform="translate(129.375,69.3203125)"/>
<path d="M0 0 C21.12 0 42.24 0 64 0 C64 21.78 64 43.56 64 66 C42.88 66 21.76 66 0 66 C0 44.22 0 22.44 0 0 Z " fill="#5BB18C" transform="translate(96,162)"/>
<path d="M0 0 C2.94465038 1.87259166 5.66426169 3.88654746 8.39453125 6.0625 C12.90543042 9.60985619 17.46083397 13.05884503 22.14453125 16.375 C22.71848633 16.78202148 23.29244141 17.18904297 23.88378906 17.60839844 C25.09686507 18.46845941 26.31008544 19.3283168 27.5234375 20.18798828 C38.21448689 27.78781253 48.79795302 35.53524545 59.34814453 43.32885742 C64.71711398 47.29104042 70.10803213 51.22112058 75.51953125 55.125 C76.24873779 55.65158203 76.97794434 56.17816406 77.72924805 56.72070312 C81.6140626 59.52294878 85.50756128 62.31241054 89.41015625 65.08984375 C90.63013306 65.96177368 90.63013306 65.96177368 91.87475586 66.85131836 C93.42484774 67.9589332 94.97758262 69.06286241 96.53344727 70.16235352 C100.54427618 73.03340293 104.08516804 75.95877979 107.45703125 79.5625 C104.81703125 83.1925 102.17703125 86.8225 99.45703125 90.5625 C95.91081374 89.67594562 94.58052479 89.16063204 91.796875 87.11328125 C91.095625 86.60216797 90.394375 86.09105469 89.671875 85.56445312 C88.92035156 85.00693359 88.16882813 84.44941406 87.39453125 83.875 C86.60304687 83.29556641 85.8115625 82.71613281 84.99609375 82.11914062 C82.47825138 80.27338374 79.96715414 78.41873758 77.45703125 76.5625 C75.86478694 75.38904659 74.27234264 74.2158645 72.6796875 73.04296875 C70.30840613 71.29588945 67.93761763 69.54816202 65.56835938 67.79833984 C57.24489816 61.65442765 48.85391729 55.60546267 40.45703125 49.5625 C37.47699736 47.41786764 34.49769452 45.27222938 31.51953125 43.125 C30.79113037 42.59994873 30.06272949 42.07489746 29.31225586 41.53393555 C22.66122813 36.72964564 16.05902274 31.85986645 9.47290039 26.96704102 C8.71485107 26.40557373 7.95680176 25.84410645 7.17578125 25.265625 C6.50482422 24.76708008 5.83386719 24.26853516 5.14257812 23.75488281 C1.7949346 21.38670625 -0.4463694 21.15578021 -4.54296875 21.5625 C-6.83293429 22.87656054 -8.73136001 24.14440554 -10.79296875 25.75 C-12.0323002 26.67481681 -13.27189666 27.59927855 -14.51171875 28.5234375 C-15.16527344 29.01811523 -15.81882812 29.51279297 -16.4921875 30.02246094 C-20.05202371 32.69572841 -23.67759059 35.27765785 -27.29296875 37.875 C-28.83111006 38.98645224 -30.36886701 40.09843657 -31.90625 41.2109375 C-34.94290061 43.40701263 -37.98193435 45.59971325 -41.0234375 47.7890625 C-49.5256254 53.91224057 -57.98702801 60.08666823 -66.41308594 66.31420898 C-72.71124081 70.96380558 -79.04754331 75.55860381 -85.40625 80.125 C-86.09460938 80.62 -86.78296875 81.115 -87.4921875 81.625 C-88.15911621 82.10324219 -88.82604492 82.58148438 -89.51318359 83.07421875 C-90.93603371 84.11748244 -92.34137667 85.18484874 -93.73291016 86.26953125 C-94.4397998 86.81996094 -95.14668945 87.37039062 -95.875 87.9375 C-96.50768799 88.44023438 -97.14037598 88.94296875 -97.79223633 89.4609375 C-99.54296875 90.5625 -99.54296875 90.5625 -102.54296875 90.5625 C-104.5859375 88.15625 -104.5859375 88.15625 -106.73046875 85.0625 C-107.80361328 83.53109375 -107.80361328 83.53109375 -108.8984375 81.96875 C-109.44113281 81.1746875 -109.98382813 80.380625 -110.54296875 79.5625 C-106.54806106 75.29343198 -102.18782059 71.98821115 -97.41796875 68.625 C-95.80534861 67.47485652 -94.19339134 66.32378317 -92.58203125 65.171875 C-91.75219727 64.57955078 -90.92236328 63.98722656 -90.06738281 63.37695312 C-85.94702278 60.41539454 -81.87102309 57.39440416 -77.79296875 54.375 C-71.27479763 49.55787889 -64.71847392 44.8022621 -58.11328125 40.10546875 C-48.43997894 33.22516217 -38.82601016 26.26101795 -29.27075195 19.21777344 C-27.67186461 18.03925464 -26.07146052 16.8627906 -24.46948242 15.68847656 C-20.66764374 12.89638414 -16.89932989 10.07500315 -13.1875 7.1640625 C-12.5071167 6.6395752 -11.8267334 6.11508789 -11.12573242 5.57470703 C-9.85508816 4.59324169 -8.59529398 3.59750438 -7.34887695 2.58544922 C-3.24141451 -0.55766271 -3.24141451 -0.55766271 0 0 Z " fill="#5AAF8B" transform="translate(129.54296875,30.4375)"/>
<path d="M0 0 C3.63 0 7.26 0 11 0 C11 12.21 11 24.42 11 37 C7.535 35.02 7.535 35.02 4 33 C3.20368164 32.56389404 2.40736328 32.12778809 1.58691406 31.6784668 C-0.91092907 29.03651733 -0.45063517 26.70013366 -0.390625 23.14453125 C-0.38496521 22.48289474 -0.37930542 21.82125824 -0.37347412 21.13957214 C-0.35111247 19.02980668 -0.30092371 16.92175048 -0.25 14.8125 C-0.2299344 13.38088394 -0.21168372 11.9492412 -0.1953125 10.51757812 C-0.15125069 7.01116485 -0.08222777 3.50574928 0 0 Z " fill="#58AB87" transform="translate(193,28)"/>
</svg>
