<?xml version="1.0" standalone="no"?>
<!DOCTYPE svg PUBLIC "-//W3C//DTD SVG 20010904//EN"
 "http://www.w3.org/TR/2001/REC-SVG-20010904/DTD/svg10.dtd">
<svg version="1.0" xmlns="http://www.w3.org/2000/svg"
 width="128.000000pt" height="128.000000pt" viewBox="0 0 128.000000 128.000000"
 preserveAspectRatio="xMidYMid meet">
<metadata>
Created by potrace 1.16, written by Peter Selinger 2001-2019
</metadata>
<g transform="translate(0.000000,128.000000) scale(0.100000,-0.100000)"
fill="#EAF4FC" stroke="none">
<path d="M523 1264 c-57 -21 -129 -86 -161 -148 -24 -46 -27 -63 -30 -183 l-4
-133 56 0 56 0 0 108 c0 95 3 115 23 153 13 24 43 58 66 74 37 26 51 30 111
30 60 0 74 -4 111 -30 23 -16 53 -50 66 -74 20 -38 23 -58 23 -153 l0 -108 56
0 56 0 -4 133 c-3 120 -6 137 -30 183 -34 64 -104 128 -165 148 -58 20 -174
19 -230 0z"/>
<path d="M194 762 c-31 -20 -34 -54 -34 -377 0 -323 3 -357 34 -377 14 -10
878 -10 892 0 31 20 34 54 34 377 0 323 -3 357 -34 377 -14 10 -878 10 -892 0z
m508 -193 c30 -16 58 -66 58 -104 0 -43 -22 -90 -50 -105 -17 -9 -20 -21 -20
-75 0 -52 -4 -69 -20 -85 -11 -11 -24 -20 -30 -20 -5 0 -19 9 -30 20 -16 16
-20 33 -20 85 0 54 -3 66 -20 75 -11 6 -27 24 -35 40 -57 111 56 226 167 169z"/>
</g>
</svg>
