<?xml version="1.0" encoding="UTF-8"?>
<svg version="1.1" xmlns="http://www.w3.org/2000/svg" width="256" height="256">
<path d="M0 0 C0.65945751 -0.00297112 1.31891503 -0.00594224 1.9983561 -0.0090034 C4.20059757 -0.01765138 6.40278443 -0.01919533 8.6050415 -0.02069092 C10.18721634 -0.02532186 11.76939006 -0.0303469 13.3515625 -0.03573608 C17.6451218 -0.04883559 21.93866548 -0.05530027 26.23224163 -0.05974674 C28.91701911 -0.06268147 31.60179235 -0.06678703 34.28656769 -0.07125092 C42.69339088 -0.08491949 51.10020435 -0.09458924 59.50703788 -0.09845281 C69.19890602 -0.10293191 78.89063302 -0.1204756 88.58245826 -0.1494534 C96.08242827 -0.17109639 103.58235865 -0.18115849 111.08235955 -0.18249393 C115.55784808 -0.18354009 120.03320382 -0.1894077 124.50865936 -0.20731354 C128.72104559 -0.22383952 132.93319983 -0.22592786 137.14560699 -0.21717453 C138.6866671 -0.21640657 140.22773992 -0.22071494 141.76876831 -0.23063278 C160.73384331 -0.34547537 160.73384331 -0.34547537 166.80914307 5.57794189 C169.16379863 9.60047849 169.43572752 12.95746715 169.45631409 17.57885742 C169.46704704 19.23576599 169.46704704 19.23576599 169.47799683 20.92614746 C169.48068573 22.13349548 169.48337463 23.34084351 169.48614502 24.58477783 C169.49271622 25.85998291 169.49928741 27.13518799 169.50605774 28.44903564 C169.52705395 32.67428336 169.53745596 36.89953125 169.54742432 41.12481689 C169.55147353 42.58203398 169.5555905 44.03925088 169.5597744 45.49646759 C169.57881632 52.34366181 169.59304944 59.19084531 169.60138637 66.0380609 C169.61115542 73.9301781 169.63747022 81.82201458 169.67788726 89.71403289 C169.70808978 95.82204602 169.72285915 101.92997886 169.72616738 108.0380652 C169.72851315 111.6825039 169.73741133 115.32664237 169.76262856 118.97100067 C169.79033269 123.04035491 169.78606557 127.10908515 169.77911377 131.17852783 C169.79832886 132.97740448 169.79832886 132.97740448 169.81793213 134.81262207 C169.77843364 141.1601061 169.5879664 147.09746365 165.30914307 152.14044189 C161.28752466 155.22469135 158.22146051 155.51844288 153.21846008 155.52812195 C152.16484548 155.53620025 152.16484548 155.53620025 151.08994573 155.54444176 C148.74234042 155.55871991 146.39529909 155.55161825 144.04766846 155.54449463 C142.36210172 155.55019829 140.67653884 155.55716254 138.99098206 155.56529236 C134.41658532 155.58323942 129.84238025 155.58205248 125.26795888 155.57634997 C121.44830996 155.57326034 117.62869798 155.57934806 113.80905432 155.58538872 C104.79774082 155.59943743 95.78652212 155.59786979 86.77520752 155.58648682 C77.48032051 155.57500506 68.18572201 155.58908144 58.89087301 155.61588329 C50.90855822 155.6380382 42.92633401 155.64467815 34.94399065 155.63880688 C30.17738877 155.63543562 25.41097184 155.6378636 20.64439583 155.65505791 C16.16190592 155.67052164 11.67984351 155.66657796 7.19737053 155.64775276 C5.55346636 155.64406528 3.90953056 155.64718002 2.26565552 155.65763855 C0.01888103 155.67084011 -2.22647645 155.65931032 -4.47319031 155.64164734 C-5.7295526 155.64143806 -6.9859149 155.64122877 -8.28034878 155.64101315 C-12.35711803 155.04265261 -14.50662565 153.7135261 -17.69085693 151.14044189 C-21.57814205 144.93896753 -21.12179013 138.50050078 -21.09490967 131.35552979 C-21.10520454 129.44206505 -21.10520454 129.44206505 -21.1157074 127.48994446 C-21.13358552 124.00638832 -21.13248062 120.52308482 -21.12676501 117.03949666 C-21.12366537 114.12459117 -21.1297742 111.20973367 -21.13580376 108.29483503 C-21.14982981 101.41496057 -21.14830376 94.53521033 -21.13690186 87.65533447 C-21.12542229 80.57234848 -21.13949768 73.4897412 -21.16629833 66.4068051 C-21.18849333 60.31144558 -21.19508419 54.21620462 -21.18922192 48.12080759 C-21.1858602 44.48650852 -21.18821471 40.85245218 -21.20547295 37.21818733 C-21.22388914 33.16346577 -21.20971615 29.10947566 -21.19256592 25.05474854 C-21.20223389 23.86021057 -21.21190186 22.66567261 -21.22186279 21.43493652 C-21.1608765 14.5416741 -20.43370712 9.98848207 -16.69085693 4.14044189 C-11.6382756 0.1242875 -6.26100476 0.01580553 0 0 Z M51.99664307 49.91387939 C48.38026277 55.86583864 48.38490446 62.38701419 49.30914307 69.14044189 C51.4773024 76.13419478 55.29024074 81.03182091 61.30914307 85.14044189 C61.96914307 85.47044189 62.62914307 85.80044189 63.30914307 86.14044189 C63.32316162 87.28259155 63.32316162 87.28259155 63.33746338 88.44781494 C63.39125244 91.9085081 63.4748849 95.36786207 63.55914307 98.82794189 C63.57332275 100.02612549 63.58750244 101.22430908 63.60211182 102.45880127 C63.63433838 103.61573486 63.66656494 104.77266846 63.69976807 105.96466064 C63.72071533 107.02773437 63.7416626 108.09080811 63.76324463 109.18609619 C64.43841542 112.84005044 65.72189962 114.51162814 68.30914307 117.14044189 C72.38260683 118.95087023 74.31199125 119.48560983 78.55914307 118.01544189 C81.29457409 116.15037529 82.63084221 114.95256485 84.30914307 112.14044189 C84.68315055 109.33790387 84.68315055 109.33790387 84.53961182 106.27325439 C84.53896729 105.14016846 84.53832275 104.00708252 84.53765869 102.83966064 C84.51040108 100.4643545 84.46364587 98.08918904 84.39703369 95.71466064 C84.44078746 87.14864549 84.44078746 87.14864549 87.04034424 84.13043213 C89.06984052 82.65905312 91.14894381 81.40746877 93.30914307 80.14044189 C95.15121818 78.04178015 95.15121818 78.04178015 96.24664307 75.95294189 C96.6269165 75.29938721 97.00718994 74.64583252 97.39898682 73.97247314 C100.39108257 67.9497568 100.40756991 60.18344674 98.66070557 53.75372314 C95.3313409 46.51164359 90.15098345 41.57011175 82.74664307 38.70294189 C70.10272582 34.73992306 59.67491244 39.53907494 51.99664307 49.91387939 Z " fill="#2C7456" transform="translate(53.69085693359375,100.85955810546875)"/>
<path d="M0 0 C14.58830461 10.31855692 23.66274128 24.04347673 27.46092224 41.5211792 C28.16417425 45.7182576 28.12836609 49.86014607 28.078125 54.10546875 C28.0752951 55.02496811 28.07246521 55.94446747 28.06954956 56.89183044 C28.05845834 59.79521343 28.03337513 62.69827459 28.0078125 65.6015625 C27.99776838 67.58397988 27.98864505 69.56640216 27.98046875 71.54882812 C27.96026675 76.37912649 27.92109776 81.20873921 27.8828125 86.0390625 C20.9528125 86.0390625 14.0228125 86.0390625 6.8828125 86.0390625 C6.84542969 83.50734375 6.80804688 80.975625 6.76953125 78.3671875 C6.72312402 75.87475671 6.67196086 73.38246482 6.62036133 70.89013672 C6.58741053 69.1776598 6.55928908 67.46508205 6.53637695 65.75244141 C6.32939813 50.68262131 5.61725453 36.38815045 -5.2265625 24.78125 C-9.76408482 20.54101363 -14.34087594 17.32551916 -20.1171875 15.0390625 C-21.1484375 14.6265625 -22.1796875 14.2140625 -23.2421875 13.7890625 C-34.55123555 11.60021449 -45.73346312 12.44272252 -55.65234375 18.6171875 C-57.94278556 20.31494403 -60.03668387 22.09118061 -62.1171875 24.0390625 C-62.68179688 24.56242187 -63.24640625 25.08578125 -63.828125 25.625 C-71.99827106 34.12692864 -74.19837049 45.50412383 -74.43359375 56.83984375 C-74.45437485 57.67621872 -74.47515594 58.51259369 -74.49656677 59.37431335 C-74.56169784 62.03331671 -74.620777 64.69241478 -74.6796875 67.3515625 C-74.72290742 69.15951481 -74.7665228 70.96745772 -74.81054688 72.77539062 C-74.91808235 77.19651913 -75.01742615 81.61772444 -75.1171875 86.0390625 C-82.0471875 86.0390625 -88.9771875 86.0390625 -96.1171875 86.0390625 C-96.18651858 80.27687918 -96.24611172 74.51617624 -96.28198242 68.75390625 C-96.296955 66.7987779 -96.31734031 64.84368247 -96.34350586 62.88867188 C-96.52505259 48.96296991 -96.0474015 36.61516451 -89.5546875 23.9765625 C-89.20809082 23.30101318 -88.86149414 22.62546387 -88.50439453 21.92944336 C-80.7764735 7.52305092 -67.91448354 -2.18094375 -52.51953125 -7.3046875 C-34.85541909 -12.13000594 -15.47617458 -9.69840274 0 0 Z " fill="#2B7455" transform="translate(162.1171875,8.9609375)"/>
</svg>
