<?xml version="1.0" encoding="UTF-8"?>
<svg version="1.1" xmlns="http://www.w3.org/2000/svg" width="96" height="96">
<path d="M0 0 C8.80288754 6.34043826 15.4186507 14.72648904 17.58203125 25.4921875 C18.92007691 37.90936834 17.85729499 48.88109459 10.39453125 59.2421875 C3.58210875 67.3274193 -4.72289951 73.55522767 -15.48876953 74.71533203 C-28.40007937 75.61089799 -39.16843729 74.04490094 -49.3515625 65.46484375 C-57.86959925 57.33325857 -62.42046403 48.68416257 -62.88867188 36.85693359 C-63.04371176 24.34263074 -60.22647828 14.71931927 -51.41796875 5.4921875 C-37.63784493 -7.66275112 -16.31305228 -10.17259803 0 0 Z " fill="#6B18FE" transform="translate(70.41796875,13.5078125)"/>
<path d="M0 0 C4.9356393 2.46781965 7.27197516 5.38334258 10 10 C10.495 9.649375 10.99 9.29875 11.5 8.9375 C15.15315765 7.56756588 18.27974614 7.92806245 22 9 C24.0625 10.625 24.0625 10.625 25 13 C24.6875 16.75 24.6875 16.75 24 20 C24.9075 20.0825 25.815 20.165 26.75 20.25 C30.53688242 21.12389594 31.7614704 21.84947686 34 25 C35.12838021 29.06216875 35.23519384 31.30748481 33.875 35.3125 C31.69567994 38.43619209 30.70866414 39.24140961 27 40 C23.20799558 39.86694721 20.80867195 39.53202102 17.625 37.4375 C15.26991764 33.90487647 15.20198663 31.24171918 15 27 C15.495 25.515 15.495 25.515 16 24 C15.4225 23.896875 14.845 23.79375 14.25 23.6875 C11.67950842 22.90207202 10.06342716 21.69495803 8 20 C7.773125 20.598125 7.54625 21.19625 7.3125 21.8125 C5.64390958 24.59348403 3.8716168 25.5641916 1 27 C0.34 27 -0.32 27 -1 27 C-1.33 25.02 -1.66 23.04 -2 21 C-4.64 21 -7.28 21 -10 21 C-10 23.64 -10 26.28 -10 29 C-9.34 29 -8.68 29 -8 29 C-8 29.99 -8 30.98 -8 32 C-7.113125 32.061875 -6.22625 32.12375 -5.3125 32.1875 C-1.04096361 33.23523534 0.45798563 34.41127382 3 38 C3.88567405 41.87839524 3.92724809 45.36027084 1.9375 48.87890625 C-0.91895199 52.40696451 -2.77022886 53.85810333 -7.25 54.375 C-12.04749221 53.89525078 -13.77622087 52.53080572 -17 49 C-17.875 45.6875 -17.875 45.6875 -18 43 C-19.19625 43.0825 -20.3925 43.165 -21.625 43.25 C-26.08034569 43.27374074 -28.51383301 41.80593928 -32 39 C-34.25204063 36.74795937 -33.30606468 32.1206875 -33.32568359 29.08520508 C-33.21774758 22.2957078 -31.95936224 14.95936224 -27 10 C-24.8359375 10.0234375 -24.8359375 10.0234375 -22.375 10.375 C-21.55773438 10.48585938 -20.74046875 10.59671875 -19.8984375 10.7109375 C-19.27195312 10.80632813 -18.64546875 10.90171875 -18 11 C-17.195625 9.39125 -17.195625 9.39125 -16.375 7.75 C-12.62095506 1.27886659 -7.33630346 -1.43791548 0 0 Z " fill="#2200C5" transform="translate(41,16)"/>
<path d="M0 0 C1.54296875 2.08203125 1.54296875 2.08203125 3.1875 4.8125 C3.73792969 5.70582031 4.28835937 6.59914063 4.85546875 7.51953125 C6 10 6 10 5 13 C1.75 13.8125 1.75 13.8125 -2 14 C-4.73662467 11.61422465 -5.80498001 9.99947745 -6.5 6.4375 C-5.78006311 2.92780764 -3.82238806 0 0 0 Z " fill="#2601C8" transform="translate(80,22)"/>
<path d="M0 0 C0.79953138 3.28696233 1.09658936 4.71023192 0 8 C-5.41139241 9.32278481 -5.41139241 9.32278481 -7.9375 7.9375 C-9.52666796 5.03960549 -8.87523205 3.09697496 -8 0 C-5.13822943 -1.43088528 -3.06624227 -0.59991697 0 0 Z " fill="#A046FC" transform="translate(39,37)"/>
<path d="M0 0 C2.625 0.375 2.625 0.375 5 1 C5.625 3.375 5.625 3.375 6 6 C5.34 6.66 4.68 7.32 4 8 C1.375 7.625 1.375 7.625 -1 7 C-1.625 4.625 -1.625 4.625 -2 2 C-1.34 1.34 -0.68 0.68 0 0 Z " fill="#9D45FB" transform="translate(22,44)"/>
<path d="M0 0 C1.65 0.33 3.3 0.66 5 1 C4.67 2.65 4.34 4.3 4 6 C2.35 5.67 0.7 5.34 -1 5 C-0.67 3.35 -0.34 1.7 0 0 Z " fill="#933FF6" transform="translate(19,34)"/>
</svg>
