<?xml version="1.0" encoding="UTF-8"?>
<svg version="1.1" xmlns="http://www.w3.org/2000/svg" width="256" height="256">
<path d="M0 0 C1.9375 0.1875 1.9375 0.1875 4 1 C6.09248943 3.92948521 6.53166705 6.46441409 6 10 C3.59375 12.01953125 3.59375 12.01953125 0.5 13.8125 C-1.03140625 14.71935547 -1.03140625 14.71935547 -2.59375 15.64453125 C-3.3878125 16.09183594 -4.181875 16.53914063 -5 17 C0.445 15.515 0.445 15.515 6 14 C6 17.3 6 20.6 6 24 C2.04 25.98 -1.92 27.96 -6 30 C-1.05 29.01 -1.05 29.01 4 28 C2.77173754 32.50362902 1.53116561 34.95794854 -2 38 C-8.66101551 41.68294244 -15.52833364 44.53496738 -23 46 C-16.85845775 45.41509121 -10.99320151 44.45933748 -5 43 C-5.4373981 52.84145729 -11.37361734 61.08852022 -17.8984375 68.1171875 C-21.01682272 70.91098244 -24.1390797 72.41426488 -28 74 C-26.68 74.33 -25.36 74.66 -24 75 C-27.63 76.98 -31.26 78.96 -35 81 C-33.68 81.66 -32.36 82.32 -31 83 C-47.74436087 102.13641242 -78.40605009 109.758036 -102.8046875 111.765625 C-109.20265386 112.17839702 -115.59273145 112.17010447 -122 112 C-121.03578125 112.06058594 -120.0715625 112.12117188 -119.078125 112.18359375 C-117.18320313 112.30927734 -117.18320313 112.30927734 -115.25 112.4375 C-113.99703125 112.51871094 -112.7440625 112.59992188 -111.453125 112.68359375 C-108 113 -108 113 -106.1081543 113.51147461 C-103.62357981 114.08722835 -101.36678505 114.12962253 -98.81640625 114.1328125 C-97.30916992 114.13571289 -97.30916992 114.13571289 -95.77148438 114.13867188 C-94.71251953 114.13416016 -93.65355469 114.12964844 -92.5625 114.125 C-90.94891602 114.12209961 -90.94891602 114.12209961 -89.30273438 114.11914062 C-81.82518219 114.07852628 -74.43803228 113.81353478 -67 113 C-69.92734191 122.87094036 -77.73756172 131.74106227 -86.6340332 136.95825195 C-92.61880311 140.09779065 -98.95613404 142.3040668 -105.3125 144.5625 C-106.90868164 145.14161133 -106.90868164 145.14161133 -108.53710938 145.73242188 C-115.28474474 148.14905516 -122.05531928 150.22771817 -129 152 C-121.61399738 151.63222539 -115.37364262 150.35937108 -108.43359375 147.7421875 C-106 147 -106 147 -104 148 C-122.80534412 162.05880293 -146.59396412 175.3866258 -170 179 C-159.01501215 180.01573518 -150.86391284 177.27711223 -141 173 C-139.67454157 172.43344773 -138.34902355 171.86703486 -137.0234375 171.30078125 C-136.02570313 170.87152344 -135.02796875 170.44226563 -134 170 C-136.32420509 176.97261527 -147.81878573 182.09639381 -154.125 185.5 C-164.45728584 190.51315919 -175.59322445 193.70600419 -186.51660156 197.17138672 C-188.96325182 197.92282199 -188.96325182 197.92282199 -191 199 C-192.70702735 199.06996014 -194.41668003 199.08440154 -196.125 199.0625 C-197.03507812 199.05347656 -197.94515625 199.04445312 -198.8828125 199.03515625 C-199.58148438 199.02355469 -200.28015625 199.01195312 -201 199 C-193.32945786 178.33649871 -178.24452294 159.39601105 -165 142 C-164.34185303 141.1335083 -164.34185303 141.1335083 -163.67041016 140.24951172 C-148.53968796 120.4266648 -131.82089591 101.39565295 -113 85 C-112.49968262 84.56026855 -111.99936523 84.12053711 -111.48388672 83.66748047 C-98.16092002 71.98942808 -83.98048739 61.79045126 -69.03759766 52.29833984 C-45.14482738 37.07407045 -20.09410742 20.09410742 0 0 Z M-34 47 C-34 47.33 -34 47.66 -34 48 C-32.35 48 -30.7 48 -29 48 C-29 47.67 -29 47.34 -29 47 C-30.65 47 -32.3 47 -34 47 Z M-180 180 C-180 180.33 -180 180.66 -180 181 C-178.35 181 -176.7 181 -175 181 C-175 180.67 -175 180.34 -175 180 C-176.65 180 -178.3 180 -180 180 Z " fill="#5BB38E" transform="translate(238,11)"/>
<path d="M0 0 C-2.475 5.445 -2.475 5.445 -5 11 C-1.7 7.7 1.6 4.4 5 1 C5.33 1.66 5.66 2.32 6 3 C4.55669869 6.13564285 2.74680549 9.01764916 1 12 C5.95 8.7 10.9 5.4 16 2 C16.99 2.495 16.99 2.495 18 3 C9.70536863 10.85407402 1.07271916 18.06124881 -8 25 C-6.75283203 24.24203125 -6.75283203 24.24203125 -5.48046875 23.46875 C-4.39378906 22.8190625 -3.30710938 22.169375 -2.1875 21.5 C-0.56908203 20.52546875 -0.56908203 20.52546875 1.08203125 19.53125 C4 18 4 18 7 18 C-9.22726529 33.15968205 -28.52741769 44.82440365 -47 57 C-64.13129062 68.29211825 -80.49400677 80.04218743 -95.6875 93.90625 C-97.65655591 95.68904386 -99.65890202 97.41118447 -101.6875 99.125 C-111.1055925 107.33219489 -119.96626072 116.44109167 -128 126 C-128.84175781 126.95261719 -129.68351562 127.90523438 -130.55078125 128.88671875 C-150.85792931 151.94673605 -167.81736226 177.76720459 -183.5 204.125 C-183.89711182 204.78685303 -184.29422363 205.44870605 -184.70336914 206.13061523 C-187.52500378 210.92999164 -189.82903596 215.87575586 -192 221 C-193.98 220.34 -195.96 219.68 -198 219 C-197.32571111 215.59644654 -196.01227726 212.94010057 -194.33203125 209.9140625 C-193.77580078 208.91205811 -193.21957031 207.91005371 -192.64648438 206.87768555 C-192.04126953 205.80429932 -191.43605469 204.73091309 -190.8125 203.625 C-190.18537109 202.5110083 -189.55824219 201.3970166 -188.91210938 200.24926758 C-173.05458082 172.34215595 -154.66383934 145.57982919 -134 121 C-133.13655257 119.9493553 -132.27327979 118.89856705 -131.41015625 117.84765625 C-119.60705931 103.62399424 -106.66475623 90.27163443 -91.75390625 79.30078125 C-89.90990779 77.93318328 -88.09463008 76.53290379 -86.28125 75.125 C-71.30734918 63.57359703 -55.30121709 53.55844093 -39 44 C-47.11599959 47.86222494 -54.70608877 52.1497028 -62.1875 57.125 C-63.18289795 57.78169678 -64.1782959 58.43839355 -65.20385742 59.11499023 C-73.93150412 64.89999285 -82.56476802 70.7955895 -91 77 C-91.73557129 77.53947266 -92.47114258 78.07894531 -93.22900391 78.63476562 C-108.33635354 89.8034479 -121.42439787 102.17510605 -133 117 C-133.92723452 118.14002036 -134.85708341 119.2779176 -135.7890625 120.4140625 C-143.32615829 129.63401943 -150.2950572 139.16105358 -157 149 C-157.73814941 150.08265137 -158.47629883 151.16530273 -159.23681641 152.28076172 C-178.60696097 180.25943202 -178.60696097 180.25943202 -195 210 C-196.65 210 -198.3 210 -200 210 C-205.41372732 198.30979996 -201.59521126 180.39302364 -197.8984375 168.4375 C-197.60195312 167.633125 -197.30546875 166.82875 -197 166 C-196.67 166 -196.34 166 -196 166 C-195.34 169.3 -194.68 172.6 -194 176 C-193.79503906 175.01257813 -193.59007812 174.02515625 -193.37890625 173.0078125 C-193.10949219 171.72648438 -192.84007812 170.44515625 -192.5625 169.125 C-192.29566406 167.84882813 -192.02882812 166.57265625 -191.75390625 165.2578125 C-191 162 -191 162 -190 160 C-189.34 160.33 -188.68 160.66 -188 161 C-188.33 164.63 -188.66 168.26 -189 172 C-188.65388672 169.89625 -188.65388672 169.89625 -188.30078125 167.75 C-183.97353622 142.23775454 -176.64034377 125.8451795 -159.1875 106.4375 C-158.73157471 105.92461426 -158.27564941 105.41172852 -157.8059082 104.88330078 C-155.25833372 102.09687652 -153.46356067 100.73178033 -150 99 C-149.505 105.93 -149.505 105.93 -149 113 C-148.896875 110.9375 -148.79375 108.875 -148.6875 106.75 C-147.50526839 90.49431534 -142.99279202 80.72439422 -132 69 C-130.84888003 67.65032441 -129.70263094 66.29647124 -128.5625 64.9375 C-122.37429778 57.88747052 -115.27306951 52.03604799 -107.6875 46.5625 C-107.100896 46.13727051 -106.51429199 45.71204102 -105.90991211 45.27392578 C-102.72506694 43.02585325 -99.69100772 41.26726907 -96 40 C-96 41.32 -96 42.64 -96 44 C-95.505 43.13375 -95.01 42.2675 -94.5 41.375 C-89.78869 34.47687034 -82.30301528 30.93288824 -75.125 27.0625 C-74.36292236 26.64830811 -73.60084473 26.23411621 -72.81567383 25.80737305 C-70.91019771 24.80593783 -68.95785373 23.8947181 -67 23 C-66.34 23.33 -65.68 23.66 -65 24 C-65.54140625 25.58941406 -65.54140625 25.58941406 -66.09375 27.2109375 C-66.56265793 28.59890499 -67.03139931 29.98692875 -67.5 31.375 C-67.73847656 32.07367188 -67.97695312 32.77234375 -68.22265625 33.4921875 C-69.53735912 37.16403079 -69.53735912 37.16403079 -70 41 C-69.50371094 40.03320312 -69.00742188 39.06640625 -68.49609375 38.0703125 C-66.7283354 34.65864868 -64.906114 31.27982209 -63.05078125 27.91503906 C-62.16150868 26.29434808 -61.29672321 24.66025772 -60.4375 23.0234375 C-55.64611943 14.96293789 -48.42104589 12.12060556 -40 9 C-39.26716797 8.72671875 -38.53433594 8.4534375 -37.77929688 8.171875 C-25.75929756 3.77456722 -12.94822298 -0.77689338 0 0 Z M-33 39 C-33.99 39.99 -34.98 40.98 -36 42 C-34.35 41.34 -32.7 40.68 -31 40 C-31.66 39.67 -32.32 39.34 -33 39 Z M-99 48 C-98 51 -98 51 -98 51 Z M-100 52 C-99 54 -99 54 -99 54 Z M-148 118 C-147 120 -147 120 -147 120 Z M-194 182 C-193 184 -193 184 -193 184 Z " fill="#5BB38E" transform="translate(222,0)"/>
<path d="M0 0 C0.99 1.98 0.99 1.98 2 4 C-1.35900993 5.45677088 -4.38246405 6.34379646 -8.0078125 6.82421875 C-8.98024902 6.96166504 -9.95268555 7.09911133 -10.95458984 7.24072266 C-12.52394287 7.46187744 -12.52394287 7.46187744 -14.125 7.6875 C-48.81725003 12.97988215 -80.54732157 25.77904278 -112.234375 40.4140625 C-139.30324198 52.88113668 -167.32020078 61.53649519 -197 65 C-198.02480469 65.13019531 -199.04960937 65.26039063 -200.10546875 65.39453125 C-208.04294046 66.27386711 -216.02606388 66.09004445 -224 66 C-224.5625 64.0625 -224.5625 64.0625 -225 62 C-223.19105091 60.19105091 -220.37019293 60.63203353 -217.921875 60.45703125 C-180.73518221 57.55707704 -146.93808959 48.58430389 -113 33 C-112.07348633 32.57541504 -111.14697266 32.15083008 -110.19238281 31.71337891 C-108.32499925 30.85757591 -106.45764879 30.0017007 -104.59033203 29.14575195 C-72.80431168 14.60486287 -35.62151609 -0.72696972 0 0 Z " fill="#5BB28E" transform="translate(244,189)"/>
<path d="M0 0 C4.95 1.98 4.95 1.98 10 4 C8.98086124 15.21052632 8.98086124 15.21052632 7 19 C5.06499399 20.42242164 3.07131046 21.59256614 0.9765625 22.765625 C-1.64641953 24.40369283 -3.26440144 26.46891877 -5 29 C-5.66 28.67 -6.32 28.34 -7 28 C-6.505 26.515 -6.505 26.515 -6 25 C-6.08278237 22.6449844 -6.19040584 20.290805 -6.3125 17.9375 C-6.54038225 10.35030762 -4.48115423 6.06822969 0 0 Z M0 13 C0 13.99 0 14.98 0 16 C0.99 15.67 1.98 15.34 3 15 C3 14.34 3 13.68 3 13 C2.01 13 1.02 13 0 13 Z " fill="#5BB38E" transform="translate(17,227)"/>
<path d="M0 0 C3.63 1.32 7.26 2.64 11 4 C10.67 5.98 10.34 7.96 10 10 C5.43545749 9.45660208 2.0271824 8.20536179 -2 6 C-1.125 1.125 -1.125 1.125 0 0 Z " fill="#5BB28D" transform="translate(20,219)"/>
<path d="M0 0 C0.33 0.66 0.66 1.32 1 2 C0.34 1.67 -0.32 1.34 -1 1 C-0.67 0.67 -0.34 0.34 0 0 Z " fill="#53B496" transform="translate(230,15)"/>
</svg>
