<?xml version="1.0" encoding="UTF-8"?>
<svg version="1.1" xmlns="http://www.w3.org/2000/svg" width="256" height="256">
<path d="M0 0 C22.03852652 18.81159856 36.46579334 41.06373377 44.3515625 68.91015625 C44.69316406 70.08835937 45.03476563 71.2665625 45.38671875 72.48046875 C52.92056498 104.36791093 46.53869956 140.38566089 29.7109375 168.21484375 C11.42243893 197.30470432 -15.82417005 216.61472176 -48.6484375 225.91015625 C-49.82664063 226.25175781 -51.00484375 226.59335938 -52.21875 226.9453125 C-78.47842447 233.1495213 -108.14583514 229.67794972 -132.6484375 218.91015625 C-133.30263672 218.62688477 -133.95683594 218.34361328 -134.63085938 218.05175781 C-164.72593234 204.76588414 -188.43262339 179.18859339 -200.51953125 148.71386719 C-202.47890077 143.51521742 -204.1350825 138.25415274 -205.6484375 132.91015625 C-205.99003906 131.73195312 -206.33164063 130.55375 -206.68359375 129.33984375 C-214.21743998 97.45240157 -207.83557456 61.43465161 -191.0078125 33.60546875 C-172.71931393 4.51560818 -145.47270495 -14.79440926 -112.6484375 -24.08984375 C-111.47023438 -24.43144531 -110.29203125 -24.77304687 -109.078125 -25.125 C-71.91216204 -33.90596927 -29.43835184 -24.14652242 0 0 Z " fill="#002C2C" transform="translate(208.6484375,27.08984375)"/>
<path d="M0 0 C0.80824219 0.25652344 1.61648437 0.51304688 2.44921875 0.77734375 C8.94413693 3.09482604 13.76694287 6.57682076 19 11 C20.3921875 12.051875 20.3921875 12.051875 21.8125 13.125 C24.24286067 15.20816629 26.03266358 17.47935021 28 20 C29.65414186 21.67909805 31.32289338 23.34383909 33 25 C34.92306469 26.92776734 36.84584572 28.85581442 38.76831055 30.78417969 C44.37761122 36.40975977 49.98940865 42.03284215 55.60266399 47.65447617 C58.99334668 51.05040103 62.38307791 54.44726499 65.77075195 57.84619141 C69.05517832 61.1414534 72.34201548 64.43429264 75.63056374 67.72544098 C76.88299336 68.9797208 78.1345413 70.23488162 79.38519859 71.49092865 C81.12778605 73.24073729 82.87343929 74.98742988 84.61987305 76.73339844 C85.13781937 77.25494003 85.65576569 77.77648163 86.18940735 78.31382751 C88.84114047 80.9927802 88.84114047 80.9927802 92 83 C88.96746374 117.5081712 71.74958537 147.21604372 46 170 C23.5084024 188.2982489 -4.24938212 197.84183197 -33.0625 198.6875 C-34.1337915 198.74341309 -35.20508301 198.79932617 -36.30883789 198.85693359 C-37.84399048 198.87167725 -37.84399048 198.87167725 -39.41015625 198.88671875 C-40.31902588 198.90951904 -41.22789551 198.93231934 -42.16430664 198.95581055 C-45.95629108 197.67766857 -47.37685609 195.57572288 -49.8709259 192.51924133 C-52.34348174 189.5935729 -55.00235419 186.89269392 -57.7199707 184.19824219 C-58.24843409 183.67258195 -58.77689747 183.14692171 -59.32137489 182.60533237 C-60.43981165 181.49453623 -61.55923452 180.38473225 -62.67955971 179.27584076 C-64.46034554 177.51265227 -66.2373871 175.74576576 -68.01347351 173.97784424 C-73.05782787 168.95777748 -78.10797059 163.94356263 -83.16235352 158.93359375 C-86.26747203 155.85525042 -89.36770678 152.7720581 -92.4649868 149.68582916 C-93.64205689 148.51495893 -94.82102008 147.3459886 -96.00191689 146.17897797 C-97.64819303 144.55191426 -99.28821962 142.91878599 -100.92700195 141.28417969 C-102.32762627 139.89474152 -102.32762627 139.89474152 -103.75654602 138.47723389 C-106.71119693 135.21469255 -107.81588191 133.06379342 -108.5625 128.75 C-107.2859301 120.23953402 -97.4611154 113.32718892 -91.56640625 107.46875 C-90.2495005 106.15396667 -90.2495005 106.15396667 -88.9059906 104.81262207 C-86.12718504 102.03937204 -83.34490603 99.26963718 -80.5625 96.5 C-78.66680135 94.60989195 -76.77190217 92.71898482 -74.87695312 90.828125 C-70.25394811 86.21608996 -65.62809343 81.60692859 -61 77 C-61.34933594 76.19175781 -61.69867188 75.38351563 -62.05859375 74.55078125 C-62.74115234 72.94783203 -62.74115234 72.94783203 -63.4375 71.3125 C-64.11619141 69.72888672 -64.11619141 69.72888672 -64.80859375 68.11328125 C-68.98850501 57.19069348 -68.9438095 41.78370158 -65 30.8125 C-57.4836337 14.61525994 -45.95372665 5.72330712 -29.84765625 -0.8828125 C-20.67137292 -3.73408653 -9.06905149 -2.94449724 0 0 Z " fill="#5BB28D" transform="translate(164,58)"/>
<path d="M0 0 C0.80824219 0.25652344 1.61648437 0.51304688 2.44921875 0.77734375 C8.95106389 3.09729768 13.75178001 6.58814973 19 11 C19.886875 11.61875 20.77375 12.2375 21.6875 12.875 C29.31907584 19.88779942 35.22677378 31.70984038 36.19287109 42.06787109 C36.86070106 60.35022235 33.69580335 73.31307974 20.9765625 87.2109375 C10.8447843 97.04139887 -1.9402296 101.84319426 -15.875 102.3125 C-23.87694807 102.16869092 -31.1591414 99.96037559 -38.69262695 97.44067383 C-39.50012894 97.17080154 -40.30763092 96.90092926 -41.13960266 96.62287903 C-41.75353378 96.41732895 -42.3674649 96.21177887 -43 96 C-43.54235291 96.54679413 -44.08470581 97.09358826 -44.64349365 97.6569519 C-49.75844484 102.81199647 -54.87820305 107.96219598 -60.00341415 113.1070385 C-62.63809088 115.75214723 -65.27087691 118.39908192 -67.89941406 121.05029297 C-70.43671161 123.60933952 -72.97888 126.16345301 -75.52448273 128.71423721 C-76.49425144 129.68769797 -77.46225967 130.66291584 -78.42845917 131.63991928 C-79.78322881 133.00923052 -81.14489291 134.37171006 -82.50683594 135.73388672 C-83.27960876 136.51110077 -84.05238159 137.28831482 -84.84857178 138.08908081 C-88.07091979 140.95120123 -90.1332403 141.92120366 -94.4375 142.3125 C-99.58098052 141.8613175 -101.88010504 140.27543592 -105.25 136.4375 C-108.15166967 132.39588867 -108.64881919 130.02834873 -108 125 C-106.75157166 123.20666504 -106.75157166 123.20666504 -105.05834961 121.35351562 C-104.42017303 120.65444092 -103.78199646 119.95536621 -103.1244812 119.23510742 C-99.33502624 115.24832754 -95.46763812 111.34597753 -91.56640625 107.46875 C-90.2495005 106.15396667 -90.2495005 106.15396667 -88.9059906 104.81262207 C-86.12718504 102.03937204 -83.34490603 99.26963718 -80.5625 96.5 C-78.66680135 94.60989195 -76.77190217 92.71898482 -74.87695312 90.828125 C-70.25394811 86.21608996 -65.62809343 81.60692859 -61 77 C-61.34933594 76.19175781 -61.69867188 75.38351563 -62.05859375 74.55078125 C-62.74115234 72.94783203 -62.74115234 72.94783203 -63.4375 71.3125 C-64.11619141 69.72888672 -64.11619141 69.72888672 -64.80859375 68.11328125 C-68.98850501 57.19069348 -68.9438095 41.78370158 -65 30.8125 C-57.4836337 14.61525994 -45.95372665 5.72330712 -29.84765625 -0.8828125 C-20.67137292 -3.73408653 -9.06905149 -2.94449724 0 0 Z " fill="#F2F4F3" transform="translate(164,58)"/>
<path d="M0 0 C6.86994258 5.57930757 12.41724711 13.79244109 13.99609375 22.62109375 C14.87528059 34.74234181 13.58434727 45.09956683 5.69140625 54.77734375 C-2.09109331 63.24126032 -10.78845385 68.75714509 -22.37890625 69.84375 C-33.49946955 70.24339524 -43.75149794 66.27745536 -52.01171875 58.8046875 C-60.83173239 49.35467289 -63.4092297 39.43179773 -63.21484375 26.86328125 C-62.83185856 16.04040351 -57.45675639 7.62672477 -49.69140625 0.30859375 C-34.94273744 -12.17678861 -15.27597276 -10.91918909 0 0 Z " fill="#39C6D9" transform="translate(173.00390625,77.37890625)"/>
<path d="M0 0 C0.80824219 0.25652344 1.61648437 0.51304688 2.44921875 0.77734375 C8.636202 2.98495033 14.53317979 6.08002412 19 11 C19 15 19 15 17.46875 16.921875 C16.8190625 17.52515625 16.169375 18.1284375 15.5 18.75 C14.8503125 19.36359375 14.200625 19.9771875 13.53125 20.609375 C13.0259375 21.06828125 12.520625 21.5271875 12 22 C11.07058594 21.44570312 10.14117187 20.89140625 9.18359375 20.3203125 C7.93513501 19.58813369 6.68642348 18.85638579 5.4375 18.125 C4.82841797 17.76019531 4.21933594 17.39539063 3.59179688 17.01953125 C-5.99534458 11.43971347 -16.49220392 10.28870119 -27.25 13.125 C-38.21567456 16.94610216 -46.25173638 24.67206426 -51.2734375 35.04296875 C-54.45888571 43.62312764 -54.59571376 56.03304142 -51.3125 64.625 C-49.33190718 68.77075702 -46.82698746 72.38773824 -44 76 C-45.59092052 80.13639336 -48.60474918 83.23213248 -52 86 C-52.66 86 -53.32 86 -54 86 C-54.239534 86.56354187 -54.47906799 87.12708374 -54.7258606 87.70770264 C-56.27366751 90.49235375 -58.14300719 92.41217588 -60.38623047 94.67675781 C-61.29412323 95.59741028 -62.20201599 96.51806274 -63.13742065 97.46661377 C-64.13027148 98.46252123 -65.12353718 99.45801523 -66.1171875 100.453125 C-67.1362261 101.47859215 -68.15511432 102.50420877 -69.17385864 103.52996826 C-71.30717741 105.67524584 -73.44457365 107.81636526 -75.58447266 109.95507812 C-78.3274916 112.69789334 -81.05646912 115.45423509 -83.7821331 118.21428299 C-85.88053198 120.33489554 -87.9879344 122.4463792 -90.09799576 124.55538177 C-91.10833536 125.56808329 -92.11542918 126.58403373 -93.11919785 127.6032486 C-94.52161185 129.0252184 -95.93799405 130.43337132 -97.35498047 131.84082031 C-98.15725067 132.64594055 -98.95952087 133.45106079 -99.78610229 134.28057861 C-102 136 -102 136 -106 136 C-108.37502145 132.28902898 -108.64978656 129.33191039 -108 125 C-103.44079103 118.52704009 -97.16332745 113.03123326 -91.56640625 107.46875 C-90.2495005 106.15396667 -90.2495005 106.15396667 -88.9059906 104.81262207 C-86.12718504 102.03937204 -83.34490603 99.26963718 -80.5625 96.5 C-78.66680135 94.60989195 -76.77190217 92.71898482 -74.87695312 90.828125 C-70.25394811 86.21608996 -65.62809343 81.60692859 -61 77 C-61.34933594 76.19175781 -61.69867188 75.38351563 -62.05859375 74.55078125 C-62.74115234 72.94783203 -62.74115234 72.94783203 -63.4375 71.3125 C-64.11619141 69.72888672 -64.11619141 69.72888672 -64.80859375 68.11328125 C-68.98850501 57.19069348 -68.9438095 41.78370158 -65 30.8125 C-57.4836337 14.61525994 -45.95372665 5.72330712 -29.84765625 -0.8828125 C-20.67137292 -3.73408653 -9.06905149 -2.94449724 0 0 Z " fill="#F8F9F9" transform="translate(164,58)"/>
<path d="M0 0 C0.78310547 0.58007812 0.78310547 0.58007812 1.58203125 1.171875 C-0.61891758 5.20209197 -3.19037542 8.18738089 -6.44018555 11.42114258 C-6.93805573 11.91930481 -7.4359259 12.41746704 -7.94888306 12.9307251 C-9.58361868 14.56407558 -11.22530684 16.19024099 -12.8671875 17.81640625 C-14.00676904 18.95225476 -15.14590767 20.08854779 -16.28462219 21.2252655 C-19.27388476 24.20691446 -22.26910588 27.18250661 -25.265625 30.15686035 C-28.32590043 33.19662837 -31.38047854 36.24210968 -34.43554688 39.28710938 C-40.42413884 45.25429152 -46.41904029 51.21508452 -52.41796875 57.171875 C-55.73560861 53.94253478 -58.18927697 51.24838287 -60.16796875 47.046875 C-60.5753125 46.19867188 -60.98265625 45.35046875 -61.40234375 44.4765625 C-64.81067953 36.74226208 -64.75734147 25.31880127 -62.29296875 17.171875 C-57.70682921 6.15240082 -49.63316886 -2.5633294 -38.55859375 -7.13671875 C-24.49136488 -11.680331 -11.73965335 -8.30616454 0 0 Z " fill="#71E1EE" transform="translate(173.41796875,77.828125)"/>
<path d="M0 0 C2.28983357 1.04416214 4.11584594 2.35300617 6.09645081 3.90447998 C6.80285706 4.45233154 7.50926331 5.00018311 8.23707581 5.56463623 C8.76816956 5.98615967 9.29926331 6.40768311 9.84645081 6.84197998 C5.12356058 12.51275759 0.08314025 17.76609315 -5.13011169 22.98651123 C-5.97778107 23.837509 -6.82545044 24.68850677 -7.69880676 25.56529236 C-9.480911 27.35243485 -11.26435118 29.13824607 -13.04905701 30.92279053 C-15.78208592 33.65801955 -18.50700308 36.40116278 -21.23167419 39.14471436 C-22.96816368 40.88413564 -24.70512643 42.62308462 -26.44261169 44.36151123 C-27.66302658 45.59270439 -27.66302658 45.59270439 -28.90809631 46.84877014 C-29.66923737 47.60683456 -30.43037842 48.36489899 -31.21458435 49.14593506 C-31.88043549 49.81321121 -32.54628662 50.48048737 -33.23231506 51.16798401 C-36.33855152 53.87448772 -38.47144843 54.77997082 -42.59104919 55.15447998 C-46.39282281 54.82099107 -48.16106655 54.15046659 -51.15354919 51.84197998 C-51.81354919 50.85197998 -52.47354919 49.86197998 -53.15354919 48.84197998 C-52.42603958 48.44142395 -51.69852997 48.04086792 -50.94897461 47.62817383 C-48.01621834 45.75422964 -45.85525795 43.75110295 -43.42674255 41.26287842 C-42.51907639 40.33892273 -41.61141022 39.41496704 -40.67623901 38.4630127 C-40.19836882 37.9720385 -39.72049862 37.4810643 -39.22814751 36.9752121 C-37.72448452 35.43194858 -36.21326171 33.8964765 -34.69958496 32.36303711 C-30.39947032 28.00501901 -26.10946429 23.63724393 -21.83396912 19.25506592 C-19.21285983 16.56964573 -16.57980221 13.89644991 -13.93873787 11.23065948 C-12.935305 10.2129458 -11.93657232 9.19057591 -10.94265556 8.16356659 C-9.55693049 6.73231487 -8.1543229 5.31746653 -6.7509613 3.90350342 C-5.95773972 3.09314636 -5.16451813 2.28278931 -4.34725952 1.44787598 C-2.15354919 -0.15802002 -2.15354919 -0.15802002 0 0 Z " fill="#CDCFCE" transform="translate(112.15354919433594,145.15802001953125)"/>
</svg>
